<svg xmlns="http://www.w3.org/2000/svg" viewBox="0 0 512 425.74"><title>advantages-0</title><g id="Layer_2" data-name="Layer 2"><g id="Режим_изоляции" data-name="Режим изоляции"><path d="M0,356V69c.58-2.72,1.25-5.43,1.74-8.17,6-33.68,36.61-61,75.82-60.8C190.18.55,302.82.18,415.45.27a79.49,79.49,0,0,1,15.84,1.54C465.86,8.89,490.24,40.15,490,73.58c-.18,23.82.09,47.65-.05,71.47,0,4.12,1,6.48,5,8.49,8.61,4.34,13.93,11.63,15.9,21.21A20.54,20.54,0,0,0,512,178v91a7.11,7.11,0,0,0-.86,1.78c-1.9,11.4-8.29,19.26-18.54,24.42-1.4.71-2.46,3.42-2.51,5.24-.24,8.66,0,17.32-.08,26-.1,11.83.92,23.82-.68,35.44-5.16,37.35-36.08,63.81-73.9,63.84q-170.65.16-341.31,0A73.8,73.8,0,0,1,3.18,371C1.87,366.06,1.05,361,0,356ZM470.48,149.31c-.58-14.64.33-29-2-42.72C464,80.22,441.7,63.05,414.13,63q-168-.14-335.95-.08c-8.89,0-13.88-3.6-13.82-10.08s5-9.9,14-9.91q107.24,0,214.47,0c42.16,0,84.32,0,126.48.18,16.8.1,31.41,6.48,44.27,17.1,1.3,1.07,2.62,2.11,4.57,3.68a19.46,19.46,0,0,0,0-3.07c-5.16-22.51-27.3-40.16-50.62-40.16q-171-.06-342,0c-31,0-54.69,23.57-54.74,54.65q-.12,72.5,0,145c0,44-.2,88,.07,132a53.34,53.34,0,0,0,53.32,53q172,.12,344,0c25.49,0,49.58-21.9,51.06-47.15,1.09-18.6.56-37.29.87-55.94.05-3.53-1.4-4.6-4.78-4.52-8,.18-16,.15-24,0-19.31-.25-38.81,1.05-57.87-1.25-41.35-5-69.45-45.45-61.64-85.94,7.15-37.05,37.17-61.17,74.95-61.21q33.26,0,66.49,0Zm-35.8,128q21.24,0,42.48,0c10.39,0,14-3.67,14.07-14.2q0-39.72,0-79.46c0-9.62-4.3-13.91-14.05-13.92q-40,0-80,0a76.68,76.68,0,0,0-10.91.89c-27.4,4.05-47.52,29.18-45.49,56.71,2.07,28,25.49,49.91,53.38,50Q414.44,277.34,434.68,277.3Z"/><path d="M394.52,254.9c-17.77-.06-31.36-13.88-31.25-31.79.1-17.31,14.1-30.93,31.72-30.88,17.4.06,31,14,30.94,31.61S412.19,255,394.52,254.9Zm-10.85-31.32a11.07,11.07,0,0,0,10.94,11.22,11.44,11.44,0,0,0,11.22-11.12,11.05,11.05,0,0,0-11.12-11A10.66,10.66,0,0,0,383.67,223.58Z"/></g></g></svg>