<svg xmlns="http://www.w3.org/2000/svg" viewBox="0 0 463.06 512"><title>advantages-2</title><g id="Layer_2" data-name="Layer 2"><g id="Слой_1" data-name="Слой 1"><g id="i8c3oC.tif"><g id="_4IvgxX.tif" data-name="4IvgxX.tif"><g id="kO7s0h.tif"><path d="M242,0c6.9,2.3,9.12,7.16,8.84,14.24-.42,10.48,0,21-.16,31.48,0,3.17,1,4.24,4.22,4.58,51.55,5.38,96.21,26,134.3,61.07,1,.9,1.95,1.82,3,2.68.23.2.62.21.39.14l18.7-18.59c-3.65-3.42-7.77-7-11.64-10.93-4.75-4.78-4.71-9.58-.06-14.46,2.76-2.89,5.58-5.73,8.48-8.47,4.69-4.42,9.55-4.5,14.09,0Q441,80.37,459.6,99.18c4.56,4.6,4.58,9.49.24,14.14-2.84,3-5.8,6-8.84,8.83-4.4,4.14-9.82,4.12-14.16-.24-3.85-3.88-7.42-8-10.82-11.77L407.3,129.23c6.62,9.35,14.17,19.09,20.72,29.47,19.69,31.22,30.86,65.32,34,102.15,9.35,108.8-59.18,207.93-161.38,240A218.29,218.29,0,0,1,241.85,511c-2.62.08-5.23.63-7.85,1h-4c-2.46-.32-4.91-.71-7.37-.95-9.28-.87-18.65-1.12-27.82-2.63C150.7,501.16,111.66,482.85,78.33,453c-41.44-37.12-66.7-83.22-75.22-138.32C1.85,306.49,1,298.23,0,290V270a38,38,0,0,0,1.05-5.31c1.24-22.75,5.63-44.94,14.29-65.95Q68.59,69.59,207.23,50.44c4.68-.64,5.79-2.21,5.71-6.43-.19-10,.27-20-.16-30-.29-6.77,1.48-11.7,8.22-14ZM232,493c115.86.17,211.56-95.44,212.4-211.06.86-118-95.56-214.67-212.79-214.48-116.44.18-212.46,95.09-212.73,211.11C18.6,397,113.85,492.83,232,493Z"/><path d="M240.87,187.93c0,23.31.07,46.63-.07,69.94,0,3.43,1,5.18,4.15,6.86,9.86,5.31,15.14,13.7,15.12,25.11s-5.29,19.81-15.21,25c-3.22,1.7-4.32,3.63-4,7a52.21,52.21,0,0,1,0,6.5c-.22,5.21-3.7,9-8.55,9.37-4.64.36-10.06-3.26-9.6-8.11.9-9.28-3.57-13.9-10.36-19.45-15-12.28-11.41-36.16,5.93-45.34,3.14-1.66,4.1-3.43,4.1-6.84q-.17-69.45-.07-138.9,0-11.28,8.35-12.06c6.12-.59,10.2,3.25,10.22,10C240.9,140.63,240.86,164.28,240.87,187.93Z"/></g></g></g></g></g></svg>