<svg xmlns="http://www.w3.org/2000/svg" viewBox="0 0 512 441.78"><title>advantages-1</title><g id="Layer_2" data-name="Layer 2"><g id="Режим_изоляции" data-name="Режим изоляции"><path d="M512,126.78c-7.47,23.35-23.57,41.48-37.41,60.87-10.82,15.15-21.17,16.85-37.74,8.47-8.76-4.43-17.41-9.09-26.27-13.31-7.86-3.75-10.06-2.37-10.53,6.44-.51,9.48-.92,19-.87,28.47.18,40,.16,80,1.05,119.91.39,17.28,2.93,34.5,4.25,51.76a96.23,96.23,0,0,1,.07,18c-2,17.6-10.9,25.78-30.07,28.19-52.72,6.62-105.67,7.1-158.66,5.42-22.45-.72-44.86-2.74-67.28-4.34a134,134,0,0,1-16.31-2.24c-16.07-3.15-24.81-13.28-24.89-30.18,0-11.29,1.15-22.6,2.13-33.87A1129.44,1129.44,0,0,0,113.63,243q-.67-27-1.47-54c-.23-8.19-2.38-9.79-9.71-6.46C94,186.45,85.75,190.85,77.39,195a89.44,89.44,0,0,1-9.53,4.31c-9.51,3.34-18.24,2-25.11-5.71a219.11,219.11,0,0,1-13.86-17.65c-5.57-7.68-10.71-15.68-16.22-23.41C7,144.6,2.36,136.27,0,126.78v-8C3.52,105.37,12.49,96,22.82,87.5q14.51-11.86,29-23.79c26.84-22.21,56.76-37.66,91.76-42.08,19.49-2.46,38.33-6.81,54.59-18.81,4.74-3.5,10.06-3.5,15.67-1.31,11.78,4.6,23.69,8.71,36.54,9.5,16.56,1,32.08-2.84,47.1-9.2,6.49-2.75,12.36-2.27,17.9,1.77C330.09,14.32,347,18.72,364.71,20.94c30.17,3.8,57.82,14.18,82.09,32.63,14.85,11.28,29.17,23.27,43.66,35,9.7,7.85,18,16.76,21.54,29.2ZM319.16,422.87v-6.1q0-84,0-168a44.42,44.42,0,0,1,.13-6,9,9,0,0,1,9.42-7.86,8.84,8.84,0,0,1,8.34,8.37c.15,1.65.12,3.33.12,5l0,166.49v6.06c2.1,0,3.43.12,4.73,0,10.26-1.06,20.55-2,30.78-3.3,9-1.16,12.37-4.58,13.7-13.75a44,44,0,0,0,.36-10.93,1076.91,1076.91,0,0,1-6.37-129.71c.38-26.15,1.08-52.33,3-78.39,1.36-18.57,11.35-26.75,29.39-19.83,9.75,3.74,19.05,8.65,28.47,13.21,10.42,5,15.19,4.32,21.86-5,8.46-11.76,16.69-23.7,24.55-35.87,7.18-11.1,5.9-20.84-3.63-30.16a173.82,173.82,0,0,0-15.89-13.68c-15.32-11.74-30.35-23.95-46.37-34.65-19.64-13.12-42.41-17.9-65.47-21.18-6.18-.88-12.31-2.13-19.08-3.32V40.8c0,19.16,0,38.33,0,57.5,0,6.25-2.81,9.83-7.78,10.36-6,.64-10.13-3.34-10.15-10.07-.06-20-.52-40,.21-60,.32-8.74-1.93-14.34-10-18-3.29-1.51-5.71-2.11-9.22-.78-7.6,2.88-15.39,5.3-23.22,7.48-3.92,1.09-8.11,1.24-12.24,1.83V422.87Zm-144.55-1.65V34.39c-6.39,1.13-12.37,2.34-18.4,3.23-20.49,3-40.62,7.22-59.08,17.2C71.55,68.65,50.25,88.12,28.48,107a22.74,22.74,0,0,0-2.88,3.44c-7.4,9.53-7.76,17.5-1,27.46q10.35,15.31,21,30.45c10.88,15.51,14,15.91,30.72,7.15a179.27,179.27,0,0,1,27.89-11.89c11.29-3.65,19.68,1.35,23,12.82a64.86,64.86,0,0,1,2.62,15.69c.89,26,2.23,52,1.9,77.92-.39,30.79-2.18,61.56-3.67,92.32-.6,12.29-2.56,24.53-2.89,36.81-.31,11.83,5.77,17.69,17.52,18.77,1.82.17,3.63.49,5.45.67C156.78,419.45,165.5,420.32,174.61,421.22ZM246,29.89c-10-2.74-19.93-4.48-29-8.24-7.3-3-12.75-2.91-19.06,1.85-3.59,2.71-5.12,5.09-5.12,9.59q.18,191.93.08,383.84v5.81H246Z"/><path d="M326.31,134.67c9,0,18-.1,27,0,6.6.1,9.71,3.31,9.74,9.93.07,13.33.16,26.66,0,40-.2,14.87-10.38,24.92-25.25,25.17q-11.75.19-23.49,0c-15-.24-25.09-10.31-25.22-25.17-.11-13.33-.07-26.66,0-40,0-6.62,3.19-9.84,9.76-9.92C308,134.6,317.14,134.68,326.31,134.67ZM307.05,152.9c0,11.22-.21,22.17.11,33.1.13,4.13,3.38,5.86,7.37,5.88,7.66,0,15.32.11,23,0,5.13-.06,7.53-2.55,7.59-7.79.09-8,0-16,0-24,0-2.41,0-4.83,0-7.21Z"/></g></g></svg>