<svg xmlns="http://www.w3.org/2000/svg" viewBox="0 0 479.97 512"><title>advantages-3</title><g id="Layer_2" data-name="Layer 2"><g id="Режим_изоляции" data-name="Режим изоляции"><path d="M151,512c-5.47-3.39-7.58-8.15-7.1-14.67.5-6.79.1-13.65.11-20.49,0-9,3.55-12.61,12.67-12.84,1,0,1.93-.12,3.32-.21,0-7.23.2-14.2-.07-21.15A11.91,11.91,0,0,1,165,432c4.6-3.58,8.75-7.74,13.4-11.25,9.63-7.3,13.87-17.2,14.5-28.91a68.58,68.58,0,0,0-1.24-18.66c-2.41-11.06-1.26-19.06,10.35-23.9a8.35,8.35,0,0,0,1.31-.72c18.85-12,17.37-17.38,5.67-34.93-.67-1-2.07-1.61-3.23-2.2a98,98,0,0,1-27.63-21.16,14.34,14.34,0,0,0-5.68-3.64C87.4,257.7,33.21,199.65,9.07,113.41,2.57,90.2.1,66.33,0,42.24,0,34.7,2.65,32,10.2,32Q58,32,105.7,32H112c0-6.92.25-13.68-.08-20.41-.24-4.89.94-8.8,5.08-11.59H363c4.12,2.8,5.34,6.68,5.09,11.58C367.72,18.19,368,24.83,368,32h5.74l95.47,0c8.21,0,10.88,2.6,10.78,10.65-.74,62.8-18.18,119.85-59.18,168.4-30.36,36-68,61.41-113.1,75.46a14.78,14.78,0,0,0-6.06,3.92,110.11,110.11,0,0,1-26.75,20.69c-8.14,4.59-10.87,13-12.66,21.54-.32,1.54,1.07,4,2.41,5.21,4.39,4,8.8,8.16,13.79,11.33,9.92,6.31,12.47,15,9.76,26.32-3.52,14.67-2.31,29.26,9,40.88a173.26,173.26,0,0,0,18.51,16,11,11,0,0,1,4.75,9.74c-.15,7.13,0,14.27,0,21.87,2.17,0,3.81-.1,5.44,0,5.78.4,10,4.51,10.11,10.34.18,9.16,0,18.32.05,27.49,0,5-3.57,7.51-7,10.14ZM128.86,63c0,2.3,0,4.1,0,5.9A519.08,519.08,0,0,0,140.08,169c6.41,29.73,15.55,58.52,31.11,84.91,8.87,15.05,19.42,28.7,34,38.76,21.71,15,47,15.42,68.7.38A108.13,108.13,0,0,0,293.75,275c17.36-20.11,28-44,36.15-69,13.71-42.13,19.35-85.6,21-129.69.17-4.41,0-8.83,0-13.35Zm-.74-16.53H351.67V16.36H128.12ZM342.48,220.1c45.25-36.12,77.83-79.59,83.09-139.88H367.44C365.2,128,358.19,174.79,342.48,220.1ZM54.59,80.29c1.8,28.89,11.27,54.82,26.3,78.9,14.91,23.9,34.27,43.68,55.29,60.33-5.32-22.5-11.78-45.39-15.93-68.69s-6-47-8.83-70.54ZM368.17,64h5.31q29.75,0,59.49,0c7.52,0,10.15,2.71,10.11,10.28a147.56,147.56,0,0,1-8.71,49.44c-18.92,52.53-54.44,91.7-100,122.45-6.79,4.6-8.68,11.39-13.55,18.22C412.26,226.88,463.41,139,462.62,48.26H368.17ZM111.75,64V48.27H17.26c-.68,40.5,12,101.84,52,150,24.18,29.09,53.63,51.06,89,65.23-3-5.49-5.4-12-10.11-15.13-33.79-22.26-61.79-50.12-83.3-84.33-17.25-27.42-27.57-57.17-27.94-89.91C36.81,66.65,39.49,64,47.1,64c10,0,20,0,30,0Zm78,367.71H290.26c-17.75-11.36-16.61-30-18.4-47.46H208.13C206.24,401.73,207.52,420.27,189.73,431.72Zm-29.52,63.94H319.58V480.25H160.21Zm16-32H303.94V448.31H176.17Zm98.28-95.88c-2-2.24-2.93-3.69-4.23-4.74-5.82-4.67-12.17-8.78-17.49-14s-7.88-11.95-6.17-19.63c.61-2.72,1.73-5.33,2.67-8.14H230.35c6.8,12.66,2.87,23-6.53,31.68-4.23,3.92-9.44,6.75-14.11,10.22-1.28.95-2.2,2.41-4.12,4.57Z"/></g></g></svg>