<svg xmlns="http://www.w3.org/2000/svg" viewBox="0 0 32.18 69.17"><title>fb</title><g id="Layer_2" data-name="Layer 2"><g id="Слой_1" data-name="Слой 1"><g id="qchgKf.tif"><path d="M0,22.68l4.87-.26c.63,0,1.26,0,2.12,0,0-2.62-.09-5.15,0-7.66A23.18,23.18,0,0,1,7.76,9.3C9.42,3.72,13.41.65,19.08.18,23.33-.18,27.64.11,32,.11V11.87H24.58c-2.14,0-3.24,1.07-3.26,3.18,0,2.38,0,4.76,0,7.32H32.18c-.14,1.81-.25,3.42-.4,5-.19,2-.46,4-.6,6-.07,1-.55,1.21-1.43,1.2-2.75,0-5.49,0-8.43,0V69.17H7.05V34.45H0Z"/></g></g></g></svg>