<svg xmlns="http://www.w3.org/2000/svg" viewBox="0 0 70.23 70.29"><title>in</title><g id="Layer_2" data-name="Layer 2"><g id="Слой_1" data-name="Слой 1"><g id="qchgKf.tif"><path d="M70.15,35.21c0,5.61.19,11.23,0,16.84A19,19,0,0,1,50.83,70.29q-15.66,0-31.31,0a19.31,19.31,0,0,1-19.43-19q-.18-16.2,0-32.42A18.62,18.62,0,0,1,18.1.22q17.07-.44,34.15,0c9.59.25,17.5,8.39,17.87,18C70.33,23.86,70.15,29.54,70.15,35.21ZM35.36,6.51c-5.19,0-10.38,0-15.57,0-7.65,0-13.14,5.06-13.28,12.65q-.28,16.11,0,32.25A12.2,12.2,0,0,0,18.93,63.76q16.2.32,32.41,0A12.67,12.67,0,0,0,64,51.06q.3-15.89,0-31.78c-.15-7.59-5.81-12.75-13.41-12.76C45.53,6.5,40.45,6.51,35.36,6.51Z"/><path d="M35.24,17A18.13,18.13,0,1,1,17,35,18.2,18.2,0,0,1,35.24,17ZM35.19,46.7A11.67,11.67,0,1,0,23.42,35.05,11.75,11.75,0,0,0,35.19,46.7Z"/><path d="M50,16.3a4.06,4.06,0,0,1,4.11-4,4.08,4.08,0,1,1-.26,8.16A4,4,0,0,1,50,16.3Z"/></g></g></g></svg>