<svg xmlns="http://www.w3.org/2000/svg" viewBox="0 0 212.23 191.62"><title>info-4</title><g id="Layer_2" data-name="Layer 2"><g id="Слой_1" data-name="Слой 1"><g id="aaP2Xd.tif"><path d="M42.33,77.45l-13,6.38c-3.64,1.77-6.34,1-8.2-2.78Q11.12,60.92,1,40.85c-2-4-1.06-6.8,2.89-9.1C15.55,24.94,27,17.85,38.65,11a80.83,80.83,0,0,1,39-11c4-.14,6.39,1.12,7.65,5.36,3,10.17,11.07,16,21,16,9.69-.05,17.58-5.86,20.6-15.85,1.26-4.14,3.53-5.62,7.59-5.48A81.45,81.45,0,0,1,174,11.17C185.44,18,196.75,25,208.27,31.68c4.22,2.46,4.92,5.34,2.81,9.51C204.48,54.26,198,67.4,191.4,80.47c-2.37,4.68-4.47,5.32-9.27,3-3.84-1.84-7.63-3.79-12.21-6.07v6.31q0,47.25,0,94.5c0,9.64-3.69,13.37-13.24,13.38q-51,0-102,0c-8.18,0-12.31-4.13-12.32-12.29q-.06-48,0-96ZM201.1,38.58c-14.69-8.14-28.71-16.43-43.24-23.7-5.33-2.67-11.85-3-17.84-4.29-2.63-.58-4.09.45-5.4,3-5.91,11.49-15.51,17.89-28.43,17.89S83.62,25.2,77.7,13.68c-1.28-2.49-2.62-3.37-5.36-3.14a67.13,67.13,0,0,0-28.73,9.25C34,25.41,24.44,31.21,14.89,37c-1.1.66-2.06,1.54-3.3,2.47L28.41,73c4.19-2.1,8.13-3.85,11.8-6.06,1.1-.67,1.88-2.57,2-4,.42-4-.84-9.42,5.48-9.13s4.68,5.88,4.69,9.72q.17,56,0,112c0,4.32.84,6.08,5.68,6.05q48-.32,96,0c4.7,0,5.8-1.54,5.78-6-.16-35.83-.11-71.66-.1-107.49,0-3.49-.27-7.08.46-10.44.34-1.57,2.83-3.81,4.23-3.73,1.81.09,4,1.88,5.11,3.55.85,1.32,0,3.63.44,5.36.39,1.56,1.15,3.52,2.38,4.28,3.52,2.16,7.37,3.8,11.48,5.84C189.51,61.72,195,50.74,201.1,38.58Z"/></g></g></g></svg>