<svg xmlns="http://www.w3.org/2000/svg" viewBox="0 0 191.35 186.1"><title>info-5</title><g id="Layer_2" data-name="Layer 2"><g id="Слой_1" data-name="Слой 1"><g id="r1lHjP.tif"><path d="M33.68,63.82c9,0,18-.16,27,.09,3.36.09,5-1,6.25-4.12q11-27,22.55-53.86c1-2.38,3.45-5.16,5.75-5.76,3.91-1,5,2.87,6.2,5.8,7.42,17.81,14.92,35.59,22.22,53.45,1.31,3.19,2.89,4.51,6.53,4.47q26.73-.3,53.48.08c2.4,0,5.68,1.36,7,3.2,2.15,3.1-.81,5.41-3.09,7.43-13.21,11.73-26.3,23.58-39.68,35.11-3.19,2.76-3.54,5.12-2.3,9,6.09,18.83,11.89,37.75,17.75,56.66,1,3.27,2.89,6.79-.74,9.61-3.4,2.63-6.29.23-9.13-1.42-18-10.47-36-20.86-53.88-31.52-3.19-1.9-5.45-1.76-8.53.07q-27.3,16.14-54.87,31.81c-2.22,1.26-5.44.77-8.2,1.09-.3-2.77-1.5-5.81-.77-8.27,5.88-19.77,12-39.45,18.31-59.1,1-3.14.63-5-1.94-7.24Q23.17,92.64,3.24,74.43c-1.79-1.64-3.45-4.76-3.22-7,.39-3.69,4.07-3.66,7.17-3.65,8.83,0,17.66,0,26.49,0ZM95.1,19c-1.13,2.43-1.94,4-2.61,5.63C86.39,39.38,80.2,54.1,74.31,68.94c-1.54,3.87-3.77,5.35-7.86,5.3-13.83-.16-27.66-.06-41.49-.06H20.45c10.94,11.17,22,21.26,33.36,31,3.88,3.32,4.77,6.54,3.21,11.34-5,15.34-9.66,30.78-14.43,46.19-.56,1.81-1,3.67-1.68,6.44,2.42-1.35,3.87-2.12,5.3-2.95,14.68-8.53,29.41-17,44-25.68,3.73-2.23,6.73-2.4,10.55-.12,15,9,30.16,17.68,45.27,26.45,1.18.69,2.46,1.19,4.33,2.07-.65-2.2-1-3.62-1.48-5-4.92-16.06-9.78-32.15-14.82-48.17-1.3-4.15-.65-7.17,2.76-10.14,10.17-8.87,20.07-18,30.14-27a25.22,25.22,0,0,1,4.16-2.47l-1.21-1.89h-5.3c-13.67,0-27.33-.1-41,.06-4.06.05-6.47-1.3-7.89-5.23-2.21-6.1-4.85-12-7.33-18C104.07,40.57,99.74,30.16,95.1,19Z"/></g></g></g></svg>