<svg xmlns="http://www.w3.org/2000/svg" viewBox="0 0 256 213.23"><title>info-3</title><g id="Layer_2" data-name="Layer 2"><g id="Слой_1" data-name="Слой 1"><g id="W5i8mO.tif"><path d="M0,42.87C23.24,29.58,46.42,16.2,69.78,3.11A26,26,0,0,1,80.52.24C87.13-.21,93.8.11,101.09.11c.69,9.41,4.18,17.61,12.41,22.14a34.77,34.77,0,0,0,16,4.34c13.13,0,20.92-8.34,25.86-26.4,8.27,0,16.7-.09,25.13.08,1.37,0,2.77,1,4.05,1.77Q220.28,22.44,256,42.87v1Q246.48,69.58,237,95.29c-.69,1.85-1.43,3.69-2.37,6.1L202.77,91V213.23H53.41V90.9L21.5,101.41,0,43.87ZM192.06,202.78V76.15l36.15,11.91,14.65-40.4C224,36.87,205.33,26.59,187.12,15.59A31.14,31.14,0,0,0,166.81,11a5.62,5.62,0,0,0-3.87,2.65c-6.8,15.18-18.39,23.79-35,23.77S99.75,28.81,93,13.56A5,5,0,0,0,89.63,11c-7-.53-13.92-.55-19.91,4.22-2.32,1.85-5.15,3-7.75,4.53L13.11,47.67,27.8,88.06l36.48-12V202.78Z"/><path d="M170.54,138.54h-85l24.15-40.29,9.91,16.1c6.19-10.8,12.12-21.13,18.61-32.43Zm-32.4-35.14c-4.83,8.46-9.23,16.18-13.87,24.29H152m-47.29-.42.86,1.37,7.2-2.48c-.84-2.23-1.69-4.46-2.91-7.68Z"/></g></g></g></svg>