<svg xmlns="http://www.w3.org/2000/svg" viewBox="0 0 216 254.79"><title>info-1</title><g id="Layer_2" data-name="Layer 2"><g id="Слой_1" data-name="Слой 1"><g id="zTFTHB.tif"><path d="M0,58.31c2.44-.69,4.89-2,7.31-2C26,56.79,44.6,56,62.65,50.45A96.7,96.7,0,0,0,77.89,44.4c15.57-7.88,24.76-20.2,25.76-38.07.34-6.08,2-7.12,8-5.85q37.8,8,75.62,15.93c7.46,1.57,8.11,3.05,5.23,10.18-8.05,19.89-10.7,40.81-10.81,62-.05,9.73.45,19.73,2.63,29.16,3.22,13.93,11.07,24.16,27.18,24.69,1.51.05,3,1.19,4.47,1.83v7a37.33,37.33,0,0,0-1,4.24c-3.92,30.86-7.91,61.71-11.58,92.6-.62,5.21-2.84,6.66-7.72,6.62-19.48-.18-39-.21-58.43,0-5.12.06-7.34-1.68-8.38-6.75-3.46-16.86-7.39-33.61-11.14-50.4A14.66,14.66,0,0,0,116,202.9c-2.61,15.41-5.31,30.8-7.72,46.24-.65,4.18-2.63,5.6-6.64,5.59-31.79-.07-63.59,0-95.39-.14-2.09,0-4.17-1.49-6.25-2.28Zm173.72,54c-2.33-30.27.19-59.24,10-87.7l-71.57-15C109.47,33.81,95,48.27,73.5,55.59,60.72,59.94,47.07,62,33.66,64.15c-8.08,1.31-16.45.91-24.5,1.28v46.62L10.45,111c2.22,1.68,6,3.08,6.36,5.08,1,5.67-4.53,4.17-7.59,5.26V246H99.84c.39-1.9.81-3.66,1.1-5.44q5.37-32,10.73-64c.56-3.29,0-7.9,4.83-8,5.23-.14,4.67,4.86,5.41,8.15q7.34,32.37,14.33,64.8c.75,3.5,2,5,5.87,4.81,8.48-.33,17-.1,25.48-.1h27.3c4-31.9,7.91-63.37,11.91-95.32-13.45-1.79-22.21-9.43-27.3-21.13-2.33-5.37-3.83-10.53-11.46-9.25-1,.18-3.63-2.78-3.56-4.19s2.4-3.09,4.09-3.9C169.9,111.75,171.78,112.26,173.72,112.26Z"/><path d="M90.69,112.26c2.82,0,5.78-.52,8.41.18,1.75.48,3,2.69,4.54,4.13-1.39,1.39-2.69,3.87-4.18,4a101.77,101.77,0,0,1-17.37,0c-1.51-.14-2.78-2.85-4.17-4.38,1.44-1.3,2.7-3.35,4.36-3.74C85,111.81,87.87,112.27,90.69,112.26Z"/><path d="M133.92,112.27c2.82,0,5.78-.53,8.41.18,1.76.48,3,2.71,4.54,4.16-1.41,1.38-2.73,3.83-4.24,4a107.41,107.41,0,0,1-17.39,0c-1.5-.12-2.81-2.56-4.2-3.94,1.47-1.45,2.73-3.7,4.47-4.18C128.13,111.74,131.1,112.27,133.92,112.27Z"/><path d="M47.86,112.26c2.65,0,5.45-.53,7.9.17A7,7,0,0,1,60,116.56c.26,1-2.27,3.87-3.69,4a112.91,112.91,0,0,1-17.83,0c-1.37-.11-3.56-2.8-3.49-4.2s2.33-3.5,3.95-3.86C41.8,111.81,44.88,112.27,47.86,112.26Z"/></g></g></g></svg>