<svg xmlns="http://www.w3.org/2000/svg" viewBox="0 0 272.22 270.81"><title>info-2</title><g id="Layer_2" data-name="Layer 2"><g id="Слой_1" data-name="Слой 1"><g id="UpSHth.tif"><path d="M256.44,27.3c-1.65,1.58-3,2.79-4.23,4.06Q207.85,75.7,163.47,120c-1.81,1.8-4.32,4-6.51,4-2.72,0-6.63-1.38-7.85-3.45s0-5.76.71-8.61c.3-1.25,2-2.17,3-3.24Q196.91,64.44,241,20.15c1.12-1.13,2.15-2.35,3.23-3.54-7.6,0-14.85-.1-22.09,0-9.5.15-19,.49-28.48.73-6,.16-9.66-2.68-9.73-7.53-.07-4.68,3.26-7.75,9-7.9q38-1,75.93-1.94c1,0,1.92.09,3.2.15.09,1.9.24,3.52.23,5.14q-.12,37-.3,74a18.91,18.91,0,0,1-.44,4.94c-1.07,3.8-3.67,5.92-7.71,5.75-3.81-.16-6.19-2.37-7-6a28.82,28.82,0,0,1-.33-6C256.43,61.35,256.44,44.71,256.44,27.3Z"/><path d="M15.68,243.65c1.71-1.63,2.93-2.75,4.09-3.91q45-44.78,90-89.62c3.34-3.33,6.62-5,11-2.26,4.66,2.93,5,8.3.65,12.7-9.25,9.37-18.59,18.65-27.9,27.95L31.25,250.73c-1.12,1.12-2.14,2.33-3.05,3.32,11.26,0,22.34.07,33.42,0,6-.06,12-.5,18-.56,5.28-.05,8.66,3,8.7,7.58,0,4.34-3,7.67-8,7.8-26.46.74-52.94,1.32-80,2C.16,269,0,267.21,0,265.47q.12-37,.28-74A21.29,21.29,0,0,1,.39,188c.77-4.26,3.1-7,7.67-7.1,4-.1,7.21,2.76,7.59,7.11.3,3.47,0,7,0,10.49Z"/></g></g></g></svg>