<svg xmlns="http://www.w3.org/2000/svg" viewBox="0 0 69.01 69.01"><title>tg</title><g id="Layer_2" data-name="Layer 2"><g id="Слой_1" data-name="Слой 1"><g id="qchgKf.tif"><g id="_6asFUD.tif" data-name="6asFUD.tif"><path d="M69,34.48q0,11,0,22C69,64,64,69,56.5,69q-22,0-44,0C5,69,0,64,0,56.46Q0,34.53,0,12.61C0,5,5,0,12.6,0h44C63.92,0,69,5,69,12.3S69,27.09,69,34.48ZM59.12,15.05c0-1.84-1.18-2.64-2.81-2-1.85.71-3.67,1.52-5.5,2.29L12.13,31.43c-1.08.46-2.38.77-2.26,2.36s1.49,1.69,2.6,2c2.36.64,4.72,1.26,7.09,1.84a2.89,2.89,0,0,1,2.32,2.17c1.36,4.39,2.8,8.76,4.26,13.12.68,2,2.16,2.29,3.57.72s3-3.44,4.47-5.16c1.33-1.52,2-1.59,3.58-.33,3,2.35,6,4.74,9,7.09,2,1.6,3.3,1.16,3.85-1.33Q53.8,39.36,57,24.81C57.74,21.48,58.45,18.15,59.12,15.05Z"/><path d="M26.83,49.08c-1-3.68-2.07-7.36-3-11a1.46,1.46,0,0,1,.63-1.22q11.71-7.1,23.49-14.11a2.8,2.8,0,0,1,.26.21c-.4.38-.78.76-1.18,1.11C41.17,29.1,35.36,34.19,29.52,39.23a4.17,4.17,0,0,0-1.59,3.21c-.1,2.2-.4,4.4-.61,6.6Z"/></g></g></g></g></svg>