<svg xmlns="http://www.w3.org/2000/svg" viewBox="0 0 79.69 79.54"><title>viber</title><g id="Layer_2" data-name="Layer 2"><g id="Слой_1" data-name="Слой 1"><g id="cXXKAh.tif"><path d="M39.82,0A74.14,74.14,0,0,1,57,1.38c5.63,1.26,10.75,3.49,14.78,7.78a26.35,26.35,0,0,1,6.44,12.52,55.8,55.8,0,0,1-.06,25.48,25.43,25.43,0,0,1-8.27,14.09,29.31,29.31,0,0,1-12.94,6,74.78,74.78,0,0,1-18.15,1.39,5.76,5.76,0,0,0-5.28,2.43c-1.72,2.24-3.71,4.27-5.6,6.38a5.53,5.53,0,0,1-9.84-3.73c0-2.37,0-4.75,0-7.13,0-.48-.09-.76-.59-1-9.26-3.54-14.37-10.5-16.41-20A58.07,58.07,0,0,1,.4,27.36,36.41,36.41,0,0,1,3.64,15.3c3.24-6.73,8.67-10.86,15.69-13A56,56,0,0,1,33.88,0C35.86,0,37.84,0,39.82,0ZM25.43,14.28a18.42,18.42,0,0,0-2.69.25,10.63,10.63,0,0,0-7.91,13.24A42.68,42.68,0,0,0,29.24,49.38a44.37,44.37,0,0,0,14.5,7.95A10.66,10.66,0,0,0,55.12,54.5c2.69-2.7,3.26-6,2.73-9.65a2.21,2.21,0,0,0-1.1-1.37c-2.36-1.27-4.76-2.49-7.2-3.6A4.74,4.74,0,0,0,47,39.59a9.64,9.64,0,0,0-5.43,2.92.91.91,0,0,1-1.17.27,20,20,0,0,1-10.91-11,.94.94,0,0,1,.17-1,40.78,40.78,0,0,0,2.74-4.44,4.43,4.43,0,0,0-.24-4.24,51.13,51.13,0,0,1-2.61-5.24C28.79,14.91,27.64,13.84,25.43,14.28ZM61.59,31.55a21.31,21.31,0,0,0-4.88-12.78,21.53,21.53,0,0,0-16.53-8.06,1.92,1.92,0,0,0-2.06,1.17c-.55,1.36.43,2.52,2.17,2.56a17.89,17.89,0,0,1,16.85,13,38.74,38.74,0,0,1,.78,5.18,1.84,1.84,0,0,0,3.67-.16C61.6,32.22,61.59,32,61.59,31.55Zm-7.25.26A14.55,14.55,0,0,0,40,18a1.84,1.84,0,1,0-.13,3.67l.85.07A10.49,10.49,0,0,1,48,25.43a10.79,10.79,0,0,1,2.66,7.07,1.83,1.83,0,1,0,3.65,0C54.35,32.25,54.34,32,54.34,31.81ZM40.12,25.23a1.85,1.85,0,1,0-.18,3.67,3.57,3.57,0,0,1,3.45,3.5,1.88,1.88,0,0,0,2,1.93,1.9,1.9,0,0,0,1.72-2.13A7.31,7.31,0,0,0,40.12,25.23Z"/></g></g></g></svg>