<svg xmlns="http://www.w3.org/2000/svg" viewBox="0 0 77.34 46.91"><title>vk</title><g id="Layer_2" data-name="Layer 2"><g id="Слой_1" data-name="Слой 1"><g id="qchgKf.tif"><path d="M0,2c4,0,7.85-.07,11.65,0,1.53,0,2.5,1,3.19,2.47C17,9,19.14,13.37,21.5,17.67a18.33,18.33,0,0,0,3.69,4.51c1.68,1.57,3.27,1.15,3.83-1a29.31,29.31,0,0,0,0-15c-.55-2-2.39-2.5-4.33-3A3.9,3.9,0,0,1,27.65.7a37.66,37.66,0,0,1,6-.69,70.71,70.71,0,0,1,8.23.35c2.91.3,3.9,1.51,3.9,4.57,0,3.86-.2,7.73-.23,11.59a19.7,19.7,0,0,0,.35,4.41c.47,2.06,2.26,2.66,3.58,1.05a82.4,82.4,0,0,0,6.77-9.33,68.73,68.73,0,0,0,4.11-8.56,2.64,2.64,0,0,1,2.76-1.86c4.65.06,9.3,0,14.16,0,0,2.58,0,5.32,0,8.05,0,.41-.41.84-.69,1.22q-4,5.37-7.94,10.71c-.47.64-.93,1.29-1.34,2-1.2,2-1.11,3.32.52,5,2.59,2.67,5.24,5.26,7.88,7.86a4.87,4.87,0,0,1,1.67,4.2c-.17,1.73,0,3.48,0,5.57-2.12,0-4.12,0-6.12,0s-4.24,0-6.36.07A8.26,8.26,0,0,1,59,44.63c-1.75-1.6-3.3-3.43-5-5.12A29.74,29.74,0,0,0,51,36.57c-1.47-1.11-3-1-3.75.67a18.85,18.85,0,0,0-1.61,5.85c-.32,2.8-.87,3.68-3.64,3.59-3.48-.11-7.06,0-10.4-.77-6.64-1.57-11.95-5.54-16.27-10.76A114.85,114.85,0,0,1,.47,11.37,8.17,8.17,0,0,1,0,8.3C0,6.29,0,4.29,0,2Z"/></g></g></g></svg>