<svg xmlns="http://www.w3.org/2000/svg" viewBox="0 0 77.9 77.93"><title>whatsapp</title><g id="Layer_2" data-name="Layer 2"><g id="Слой_1" data-name="Слой 1"><g id="N3k76r"><path d="M2.55,76.22C4.11,71.56,5.61,67,7.15,62.5A1.27,1.27,0,0,0,7,61.19,37,37,0,0,1,.14,42.6c-1-13.14,3.39-24.2,13.22-33A36.83,36.83,0,0,1,32.83.48a38.06,38.06,0,0,1,31.48,9A37.29,37.29,0,0,1,77.06,31.11a37.88,37.88,0,0,1-7.75,32.15,37.6,37.6,0,0,1-23.41,14A38.11,38.11,0,0,1,18.28,72a1.8,1.8,0,0,0-1.68-.23C12.16,73.19,7.7,74.6,3.24,76Zm49-15.44a12.79,12.79,0,0,0,7.48-2.61c2.72-1.94,3.32-4.76,3.37-7.83A1.35,1.35,0,0,0,61.59,49c-3.05-1.47-6.09-3-9.17-4.39a2.14,2.14,0,0,0-2.92.85c-.86,1.16-1.69,2.34-2.59,3.48a2.45,2.45,0,0,1-3.34.86A30.32,30.32,0,0,1,28.71,37.08c-1-1.61-1-1.93.25-3.34.7-.8,1.42-1.58,2.11-2.39a2.65,2.65,0,0,0,.42-3.29,14.59,14.59,0,0,1-.63-1.46c-.93-2.27-1.9-4.53-2.79-6.82a2.69,2.69,0,0,0-2.93-2c-.46,0-.92,0-1.37,0A5.33,5.33,0,0,0,20.41,19a12.37,12.37,0,0,0-3,4,14,14,0,0,0-.07,11.08,34.48,34.48,0,0,0,4.91,8.26C27.71,49.69,34.22,55.62,43,58.67,45.8,59.64,48.58,60.68,51.58,60.78Z"/></g></g></g></svg>