<svg xmlns="http://www.w3.org/2000/svg" viewBox="0 0 167.52 164.87"><defs><style>.cls-1{stroke:#fff;stroke-miterlimit:10;}</style></defs><title>work-0</title><g id="Layer_2" data-name="Layer 2"><g id="Слой_1" data-name="Слой 1"><g id="UhEFrN.tif"><path class="cls-1" d="M11.49,164.37c-8.72.16-12.91-6.27-10.15-14,5.18-14.56,10.58-29,15.89-43.55,2.4-6.56,5.1-13,7-19.72a16.47,16.47,0,0,0,0-9.46C17,57.09,9.3,36.72,1.94,16.23A18.29,18.29,0,0,1,.8,7.52c1-6.12,8-8.83,14.31-5.73C26.77,7.47,38.33,13.34,49.93,19.15Q105,46.71,160.07,74.31A16.54,16.54,0,0,1,165,77.57c3.75,4.1,2.13,9.53-3.75,12.51-13.34,6.76-26.75,13.4-40.13,20.09q-52,26-103.94,51.92A58.59,58.59,0,0,1,11.49,164.37ZM155.38,82.46,10.39,10a13.5,13.5,0,0,0,.21,2.7c7.68,21.08,15.33,42.18,23.25,63.17.52,1.37,3.16,2.7,4.84,2.72,14,.22,28,.14,42,.12,2.92,0,6.33-.1,6.36,3.75s-3.33,3.85-6.28,3.84c-13.83,0-27.66.09-41.48-.1-3.33,0-4.95.87-6.13,4.16-7.13,20.05-14.53,40-21.82,60-.43,1.18-.66,2.43-1.29,4.81Z"/></g></g></g></svg>