<svg xmlns="http://www.w3.org/2000/svg" viewBox="0 0 218.25 454.03"><title>work-1</title><g id="Layer_2" data-name="Layer 2"><g id="Слой_1" data-name="Слой 1"><g id="VHQBOr.tif"><path d="M5.41,205.36h12c-1.68-9.88-3.23-19.31-4.89-28.71-4.15-23.44-9-46.77-12.16-70.34C-.88,97.37,1.69,87.88,2.94,78.69,3.88,71.78,5.46,65,6.73,58.07c1.36-7.3,5.57-11.89,12-13,6.65-1.15,11.89,1.45,15.77,8,4.77,8,9,16.41,14.34,24,8,11.28,9.52,24.29,11.77,37.22q7.6,43.53,15.29,87.05c.21,1.14.57,2.26.93,3.69h6.13c.51-9.74,1-19.35,1.49-29q1.54-33,2.93-65.91a6.36,6.36,0,0,0-1.42-4.43c-13.84-13-16.06-29.52-14-47C75.6,29,96.08,7,124.89,1.88,132.83.46,141.05.62,149.87,0c-.62,2-.73,3.2-1.27,4.1-11.3,18.7-11.54,38.7-7.74,59.47,1.52,8.26,1.74,16.84,1.71,25.27,0,6.4-3.63,11.54-8.22,16a8.73,8.73,0,0,0-2.57,5.77c1.2,30.64,2.63,61.26,4,91.89,0,.65.19,1.3.3,2,3.78,1.92,4.92,0,5.51-3.35,6-34.59,12.16-69.16,18.17-103.76,2.21-12.75,8-21,18.84-21.17a77.61,77.61,0,0,1,28.95,5.39c8.51,3.35,11.89,12,10.32,21.34-5.42,32-11.15,63.94-16.75,95.91-.33,1.92-.53,3.87-.85,6.32h11.49c-.8,6.89-1.49,13.26-2.29,19.61q-8.28,65.91-16.58,131.82-5.73,45.85-11.29,91.71c-.47,4-1.45,5.66-6,5.64q-67-.28-134,0c-4.47,0-5.51-1.62-6-5.61-4.34-36-8.88-72-13.36-108.06Q15.46,285.58,8.64,230.81C7.61,222.57,6.55,214.33,5.41,205.36Zm162.71,234c9.15-73.22,18.25-146,27.39-219.08H21.8c4.08,32.86,8.07,65.24,12.12,97.61,4.85,38.82,9.85,77.63,14.53,116.47.5,4.18,1.9,5.1,5.81,5.08,36-.14,72-.08,108-.08ZM14.64,106.09c1,6,2,11.38,2.93,16.75q6.95,39.33,14,78.65c.25,1.36,1.44,3.61,2.25,3.63,9.25.26,18.51.17,28.24.17-6.21-35.22-12.3-69.69-18.43-104.42Zm113-89.93c-1.78.2-2.61.21-3.39.4-19.66,5-31.3,18-36.59,37.05-3.15,11.37-3,22.74,2.07,33.64,2.53,5.42,6.1,9.44,13.07,8.42,3.1-.46,6.31-.09,9.48-.08,14.57.06,18-3.82,16.24-18.57-.1-.83-.28-1.64-.41-2.46C125.12,55.34,121.24,36.14,127.64,16.16ZM185.41,205.1c4-22.87,8-45.24,12-68l-29-5.1c-4.33,24.58-8.58,48.68-12.88,73.06Zm-83.66-94.78c-1.45,31.88-2.88,63.2-4.31,94.6h24.12c-1.45-31.77-2.87-63.11-4.31-94.6Zm69.18,7.51,29,5.06c1.3-8,2.74-15.49,3.65-23,.43-3.52-1.76-6.15-5.22-6.93-5.18-1.17-10.43-2.12-15.69-2.78-4.28-.54-7.13,1.85-8,5.91C173.3,103,172.26,110.09,170.93,117.83ZM38,87.21C32.31,77.71,27.16,69,22,60.38l-1.14.48L15.31,91.28Z"/></g></g></g></svg>