<svg xmlns="http://www.w3.org/2000/svg" viewBox="0 0 490.82 437.18"><title>work-2</title><g id="Layer_2" data-name="Layer 2"><g id="Режим_изоляции" data-name="Режим изоляции"><path d="M444.28,437.18h-398a14.16,14.16,0,0,0-2.29-.87c-26.37-5.19-43.9-26-43.93-53Q-.09,229.63.14,75.9A50.25,50.25,0,0,1,2.93,59.31C9.23,41.8,24.81,31.93,45.16,31.92q103.74,0,207.47-.08a28.05,28.05,0,0,0,9.21-1.6c27-9.62,53.82-19.42,80.74-29.1,7.83-2.82,12.81-.42,15.7,7.38,2.43,6.55,4.92,13.08,7.09,19.72.95,2.89,2.48,3.77,5.44,3.73,12-.13,24-.26,36,0,18.93.46,35.23,13.16,39.45,31.64C448,71.47,447.54,79.83,448,88c.15,2.56,0,5.14,0,7.65,25.06,1.21,43.46,20.59,42.78,48.27-1,41.8-.27,83.65-.27,125.48,0,38,.09,76,0,114-.09,24.21-14.74,44.27-37.13,51.35C450.37,435.62,447.31,436.35,444.28,437.18Zm-423-325.95v5.51q0,132.72,0,265.43c0,19.95,13.56,33.7,33.53,33.71q190.46.08,380.9,0c20,0,33.52-13.75,33.55-33.7q.06-34,0-68c0-1.6-.14-3.19-.23-5-14.62,0-28.76.12-42.91,0-21.29-.21-39.65-16.56-41.83-37-2.39-22.55,11.14-42.19,32.71-47A62.25,62.25,0,0,1,429.9,224c13-.14,25.9-.05,39.38-.05V142c0-16.68-8.16-24.86-24.77-24.86q-196.21,0-392.41,0C41.72,117.23,31.45,117.25,21.28,111.23Zm320.14-87.3L145.7,94.84l.32.66H367.44ZM197.08,53.76a14.52,14.52,0,0,0-2.27-.56q-76.4,0-152.81,0a19.63,19.63,0,0,0-15.66,7.58c-5.51,6.79-6.73,14.42-3.08,22.43C27.1,91.66,34.07,95.7,43.15,95.85c11.14.2,22.3.15,33.45,0a25.87,25.87,0,0,0,8.23-1.46Q124.27,80.29,163.61,66C174.47,62.05,185.31,58.06,197.08,53.76Zm272,191.42c-14,0-27.43,0-40.88,0-13.27,0-22.86,8.86-22.95,21.11s9.34,21.45,22.53,21.59c12.64.13,25.29,0,37.93,0a26,26,0,0,0,3.37-.47ZM426.26,95.9c0-8.81.53-17-.14-25.05-.74-9-9.15-17-18.48-17.45-10.77-.53-21.58-.12-33.05-.12,5.07,14,10,27.52,15,41a3.49,3.49,0,0,0,2.74,1.53C403.45,95.94,414.57,95.9,426.26,95.9Z"/><path d="M447.8,256.2v20.64h-21V256.2Z"/></g></g></svg>