<svg xmlns="http://www.w3.org/2000/svg" viewBox="0 0 200.26 200.26"><title>work-4</title><g id="Layer_2" data-name="Layer 2"><g id="Слой_1" data-name="Слой 1"><g id="SLjJlx.tif"><g id="Ha7IUJ.tif"><path d="M99.91,0c55.45-.36,100,44.07,100.35,100.16.38,54.65-44.2,99.77-98.91,100.1C45.33,200.6.27,156.52,0,101.1-.28,44.84,43.67.37,99.91,0Zm-91,100a91.13,91.13,0,0,0,91,91.32c50.41.08,91.38-40.63,91.45-90.85C191.4,50,150.77,9,100.61,8.93A91.06,91.06,0,0,0,8.93,100Z"/><path d="M87.4,122.26l40.08-40.34q6.17-6.19,12.38-12.35c2.28-2.27,4.82-3.3,7.38-.65s1.58,5.11-.72,7.41q-27.37,27.4-54.72,54.81c-2.63,2.63-5.38,2.46-7.89,0Q68.67,116,53.57,100.69c-2.16-2.19-3.49-5.43-.49-7.26,1.68-1,5.72-.37,7.31,1.06,7,6.36,13.61,13.23,20.26,20C82.86,116.74,84.81,119.26,87.4,122.26Z"/></g></g></g></g></svg>