<svg xmlns="http://www.w3.org/2000/svg" viewBox="0 0 135.2 194.59"><title>work-3</title><g id="Layer_2" data-name="Layer 2"><g id="Слой_1" data-name="Слой 1"><g id="YLv5kQ.tif"><path d="M67.6,194.58q-28.47,0-57,0C2.28,194.56,0,192.26,0,183.85c0-33.14,0-66.28.09-99.43a10.89,10.89,0,0,1,2.06-6.28c16-20.57,25.86-43.67,29-69.59.69-5.7,3.55-8.28,9.19-8.5C42.18,0,44,0,45.84.05,51.8.26,54.36,3,55,9c.86,8.25,1.75,16.52,3.16,24.69a27.88,27.88,0,0,0,3.94,9.61c3.21,5.24,7.94,5.35,10.94.07a43,43,0,0,0,4.84-13,198.08,198.08,0,0,0,2.33-20.8C80.76,2.69,83.29.14,90.26,0c11-.17,12.43,1.09,14,12a139.47,139.47,0,0,0,28.28,66.26,12.57,12.57,0,0,1,2.49,7.14c.17,33,.12,66,.11,98.93,0,7.71-2.44,10.2-10.13,10.22C105.91,194.61,86.76,194.58,67.6,194.58Zm58.2-9.6c.12-1.22.24-1.86.24-2.51,0-31.64.06-63.28-.08-94.93a10.52,10.52,0,0,0-2.29-5.73A150.49,150.49,0,0,1,95.1,13.45c-.22-1.48-1.68-3.71-2.88-3.94-3.44-.67-2.61,2.41-3,4.38C87.59,23.18,86.52,32.64,84,41.7,81.87,49.52,77.14,56,67.83,56.43c-7.28.36-13.76-4.71-16.66-14.75-2.62-9-3.58-18.52-5.23-27.82-.36-2,.48-5-3-4.36-1.23.24-2.73,2.4-3,3.87A150.9,150.9,0,0,1,11.44,81.2,12.13,12.13,0,0,0,9.22,88c-.15,31-.1,61.95-.09,92.92,0,1.29.19,2.58.31,4.09Z"/><path d="M72.43,138.94c4.55.75,8.59,1.88,12.64,2a8.8,8.8,0,0,0,9.19-8.07c.53-5.32-1.89-9-7.48-10-4.33-.75-8.83-.5-14-.73,1.13-8.58,2.3-17.4,3.54-26.8,7.95,0,15.74-.2,23.5.2,1.22.06,3.2,2.8,3.19,4.3s-2,3.9-3.37,4c-4.94.49-10,.19-15.6.19l-1.43,9.46,4.92.41c9.35.83,15.87,6.71,16.63,15,.87,9.64-4.37,17.81-13.68,19.82a37,37,0,0,1-13.75,0C69.26,147.44,68.76,145.68,72.43,138.94Z"/><path d="M54.91,95.91c0,16.38,0,32.65,0,48.92,0,3.7-2.46,4.11-5.45,4.09-3.27,0-4.35-1.67-4.34-4.69,0-12.47,0-24.93,0-38-1.54.63-2.63,1.37-3.79,1.49a34.24,34.24,0,0,1-5.15-.17c.17-2.16-.46-5.54.65-6.27C42,97.87,47.12,93.61,54.91,95.91Z"/></g></g></g></svg>