<?xml version="1.0" encoding="UTF-8"?><!DOCTYPE svg PUBLIC "-//W3C//DTD SVG 1.1//EN" "http://www.w3.org/Graphics/SVG/1.1/DTD/svg11.dtd"><svg xmlns="http://www.w3.org/2000/svg"><defs>
        <style>
            .cls-1{stroke:#fff;stroke-miterlimit:10}
        </style>
    </defs><symbol id="ico-advantages-0" viewBox="0 0 512 425.74">
    <title>
        advantages-0
    </title>
    <g data-name="Layer 2">
        <g data-name="&#x420;&#x435;&#x436;&#x438;&#x43C; &#x438;&#x437;&#x43E;&#x43B;&#x44F;&#x446;&#x438;&#x438;">
            <path d="M0 356V69c.58-2.72 1.25-5.43 1.74-8.17 6-33.68 36.61-61 75.82-60.8 112.62.52 225.26.15 337.89.24a79.49 79.49 0 0 1 15.84 1.54c34.57 7.08 58.95 38.34 58.71 71.77-.18 23.82.09 47.65-.05 71.47 0 4.12 1 6.48 5 8.49 8.61 4.34 13.93 11.63 15.9 21.21A20.54 20.54 0 0 0 512 178v91a7.11 7.11 0 0 0-.86 1.78c-1.9 11.4-8.29 19.26-18.54 24.42-1.4.71-2.46 3.42-2.51 5.24-.24 8.66 0 17.32-.08 26-.1 11.83.92 23.82-.68 35.44-5.16 37.35-36.08 63.81-73.9 63.84q-170.65.16-341.31 0A73.8 73.8 0 0 1 3.18 371c-1.31-4.94-2.13-10-3.18-15zm470.48-206.69c-.58-14.64.33-29-2-42.72C464 80.22 441.7 63.05 414.13 63q-168-.14-335.95-.08c-8.89 0-13.88-3.6-13.82-10.08s5-9.9 14-9.91h214.47c42.16 0 84.32 0 126.48.18 16.8.1 31.41 6.48 44.27 17.1 1.3 1.07 2.62 2.11 4.57 3.68a19.46 19.46 0 0 0 0-3.07c-5.16-22.51-27.3-40.16-50.62-40.16q-171-.06-342 0c-31 0-54.69 23.57-54.74 54.65q-.12 72.5 0 145c0 44-.2 88 .07 132a53.34 53.34 0 0 0 53.32 53q172 .12 344 0c25.49 0 49.58-21.9 51.06-47.15 1.09-18.6.56-37.29.87-55.94.05-3.53-1.4-4.6-4.78-4.52-8 .18-16 .15-24 0-19.31-.25-38.81 1.05-57.87-1.25-41.35-5-69.45-45.45-61.64-85.94 7.15-37.05 37.17-61.17 74.95-61.21h66.49zm-35.8 128h42.48c10.39 0 14-3.67 14.07-14.2v-79.46c0-9.62-4.3-13.91-14.05-13.92h-80a76.68 76.68 0 0 0-10.91.89c-27.4 4.05-47.52 29.18-45.49 56.71 2.07 28 25.49 49.91 53.38 50q20.28.01 40.52-.03z"/>
            <path d="M394.52 254.9c-17.77-.06-31.36-13.88-31.25-31.79.1-17.31 14.1-30.93 31.72-30.88 17.4.06 31 14 30.94 31.61S412.19 255 394.52 254.9zm-10.85-31.32a11.07 11.07 0 0 0 10.94 11.22 11.44 11.44 0 0 0 11.22-11.12 11.05 11.05 0 0 0-11.12-11 10.66 10.66 0 0 0-11.04 10.9z"/>
        </g>
    </g>
</symbol><symbol id="ico-advantages-1" viewBox="0 0 512 441.78">
    <title>
        advantages-1
    </title>
    <g data-name="Layer 2">
        <g data-name="&#x420;&#x435;&#x436;&#x438;&#x43C; &#x438;&#x437;&#x43E;&#x43B;&#x44F;&#x446;&#x438;&#x438;">
            <path d="M512 126.78c-7.47 23.35-23.57 41.48-37.41 60.87-10.82 15.15-21.17 16.85-37.74 8.47-8.76-4.43-17.41-9.09-26.27-13.31-7.86-3.75-10.06-2.37-10.53 6.44-.51 9.48-.92 19-.87 28.47.18 40 .16 80 1.05 119.91.39 17.28 2.93 34.5 4.25 51.76a96.23 96.23 0 0 1 .07 18c-2 17.6-10.9 25.78-30.07 28.19-52.72 6.62-105.67 7.1-158.66 5.42-22.45-.72-44.86-2.74-67.28-4.34a134 134 0 0 1-16.31-2.24c-16.07-3.15-24.81-13.28-24.89-30.18 0-11.29 1.15-22.6 2.13-33.87A1129.44 1129.44 0 0 0 113.63 243q-.67-27-1.47-54c-.23-8.19-2.38-9.79-9.71-6.46-8.45 3.91-16.7 8.31-25.06 12.46a89.44 89.44 0 0 1-9.53 4.31c-9.51 3.34-18.24 2-25.11-5.71a219.11 219.11 0 0 1-13.86-17.65c-5.57-7.68-10.71-15.68-16.22-23.41C7 144.6 2.36 136.27 0 126.78v-8C3.52 105.37 12.49 96 22.82 87.5q14.51-11.86 29-23.79c26.84-22.21 56.76-37.66 91.76-42.08 19.49-2.46 38.33-6.81 54.59-18.81 4.74-3.5 10.06-3.5 15.67-1.31 11.78 4.6 23.69 8.71 36.54 9.5 16.56 1 32.08-2.84 47.1-9.2 6.49-2.75 12.36-2.27 17.9 1.77 14.71 10.74 31.62 15.14 49.33 17.36 30.17 3.8 57.82 14.18 82.09 32.63 14.85 11.28 29.17 23.27 43.66 35 9.7 7.85 18 16.76 21.54 29.2zM319.16 422.87v-6.1-168a44.42 44.42 0 0 1 .13-6 9 9 0 0 1 9.42-7.86 8.84 8.84 0 0 1 8.34 8.37c.15 1.65.12 3.33.12 5v172.55c2.1 0 3.43.12 4.73 0 10.26-1.06 20.55-2 30.78-3.3 9-1.16 12.37-4.58 13.7-13.75a44 44 0 0 0 .36-10.93 1076.91 1076.91 0 0 1-6.37-129.71c.38-26.15 1.08-52.33 3-78.39 1.36-18.57 11.35-26.75 29.39-19.83 9.75 3.74 19.05 8.65 28.47 13.21 10.42 5 15.19 4.32 21.86-5 8.46-11.76 16.69-23.7 24.55-35.87 7.18-11.1 5.9-20.84-3.63-30.16a173.82 173.82 0 0 0-15.89-13.68c-15.32-11.74-30.35-23.95-46.37-34.65-19.64-13.12-42.41-17.9-65.47-21.18-6.18-.88-12.31-2.13-19.08-3.32V98.3c0 6.25-2.81 9.83-7.78 10.36-6 .64-10.13-3.34-10.15-10.07-.06-20-.52-40 .21-60 .32-8.74-1.93-14.34-10-18-3.29-1.51-5.71-2.11-9.22-.78-7.6 2.88-15.39 5.3-23.22 7.48-3.92 1.09-8.11 1.24-12.24 1.83v393.75zm-144.55-1.65V34.39c-6.39 1.13-12.37 2.34-18.4 3.23-20.49 3-40.62 7.22-59.08 17.2C71.55 68.65 50.25 88.12 28.48 107a22.74 22.74 0 0 0-2.88 3.44c-7.4 9.53-7.76 17.5-1 27.46q10.35 15.31 21 30.45c10.88 15.51 14 15.91 30.72 7.15a179.27 179.27 0 0 1 27.89-11.89c11.29-3.65 19.68 1.35 23 12.82a64.86 64.86 0 0 1 2.62 15.69c.89 26 2.23 52 1.9 77.92-.39 30.79-2.18 61.56-3.67 92.32-.6 12.29-2.56 24.53-2.89 36.81-.31 11.83 5.77 17.69 17.52 18.77 1.82.17 3.63.49 5.45.67 8.64.84 17.36 1.71 26.47 2.61zM246 29.89c-10-2.74-19.93-4.48-29-8.24-7.3-3-12.75-2.91-19.06 1.85-3.59 2.71-5.12 5.09-5.12 9.59q.18 191.93.08 383.84v5.81H246z"/>
            <path d="M326.31 134.67c9 0 18-.1 27 0 6.6.1 9.71 3.31 9.74 9.93.07 13.33.16 26.66 0 40-.2 14.87-10.38 24.92-25.25 25.17q-11.75.19-23.49 0c-15-.24-25.09-10.31-25.22-25.17-.11-13.33-.07-26.66 0-40 0-6.62 3.19-9.84 9.76-9.92 9.15-.08 18.29 0 27.46-.01zm-19.26 18.23c0 11.22-.21 22.17.11 33.1.13 4.13 3.38 5.86 7.37 5.88 7.66 0 15.32.11 23 0 5.13-.06 7.53-2.55 7.59-7.79.09-8 0-16 0-24v-7.21z"/>
        </g>
    </g>
</symbol><symbol id="ico-advantages-2" viewBox="0 0 463.06 512">
    <title>
        advantages-2
    </title>
    <g data-name="Layer 2">
        <g data-name="&#x421;&#x43B;&#x43E;&#x439; 1">
            <g data-name="4IvgxX.tif">
                <path d="M242 0c6.9 2.3 9.12 7.16 8.84 14.24-.42 10.48 0 21-.16 31.48 0 3.17 1 4.24 4.22 4.58 51.55 5.38 96.21 26 134.3 61.07 1 .9 1.95 1.82 3 2.68.23.2.62.21.39.14l18.7-18.59c-3.65-3.42-7.77-7-11.64-10.93-4.75-4.78-4.71-9.58-.06-14.46 2.76-2.89 5.58-5.73 8.48-8.47 4.69-4.42 9.55-4.5 14.09 0Q441 80.37 459.6 99.18c4.56 4.6 4.58 9.49.24 14.14-2.84 3-5.8 6-8.84 8.83-4.4 4.14-9.82 4.12-14.16-.24-3.85-3.88-7.42-8-10.82-11.77l-18.72 19.09c6.62 9.35 14.17 19.09 20.72 29.47 19.69 31.22 30.86 65.32 34 102.15 9.35 108.8-59.18 207.93-161.38 240A218.29 218.29 0 0 1 241.85 511c-2.62.08-5.23.63-7.85 1h-4c-2.46-.32-4.91-.71-7.37-.95-9.28-.87-18.65-1.12-27.82-2.63-44.11-7.26-83.15-25.57-116.48-55.42-41.44-37.12-66.7-83.22-75.22-138.32C1.85 306.49 1 298.23 0 290v-20a38 38 0 0 0 1.05-5.31c1.24-22.75 5.63-44.94 14.29-65.95Q68.59 69.59 207.23 50.44c4.68-.64 5.79-2.21 5.71-6.43-.19-10 .27-20-.16-30-.29-6.77 1.48-11.7 8.22-14zm-10 493c115.86.17 211.56-95.44 212.4-211.06.86-118-95.56-214.67-212.79-214.48-116.44.18-212.46 95.09-212.73 211.11C18.6 397 113.85 492.83 232 493z"/>
                <path d="M240.87 187.93c0 23.31.07 46.63-.07 69.94 0 3.43 1 5.18 4.15 6.86 9.86 5.31 15.14 13.7 15.12 25.11s-5.29 19.81-15.21 25c-3.22 1.7-4.32 3.63-4 7a52.21 52.21 0 0 1 0 6.5c-.22 5.21-3.7 9-8.55 9.37-4.64.36-10.06-3.26-9.6-8.11.9-9.28-3.57-13.9-10.36-19.45-15-12.28-11.41-36.16 5.93-45.34 3.14-1.66 4.1-3.43 4.1-6.84q-.17-69.45-.07-138.9 0-11.28 8.35-12.06c6.12-.59 10.2 3.25 10.22 10 .02 23.62-.02 47.27-.01 70.92z"/>
            </g>
        </g>
    </g>
</symbol><symbol id="ico-advantages-3" viewBox="0 0 479.97 512">
    <title>
        advantages-3
    </title>
    <g data-name="Layer 2">
        <path d="M151 512c-5.47-3.39-7.58-8.15-7.1-14.67.5-6.79.1-13.65.11-20.49 0-9 3.55-12.61 12.67-12.84 1 0 1.93-.12 3.32-.21 0-7.23.2-14.2-.07-21.15A11.91 11.91 0 0 1 165 432c4.6-3.58 8.75-7.74 13.4-11.25 9.63-7.3 13.87-17.2 14.5-28.91a68.58 68.58 0 0 0-1.24-18.66c-2.41-11.06-1.26-19.06 10.35-23.9a8.35 8.35 0 0 0 1.31-.72c18.85-12 17.37-17.38 5.67-34.93-.67-1-2.07-1.61-3.23-2.2a98 98 0 0 1-27.63-21.16 14.34 14.34 0 0 0-5.68-3.64C87.4 257.7 33.21 199.65 9.07 113.41 2.57 90.2.1 66.33 0 42.24 0 34.7 2.65 32 10.2 32H112c0-6.92.25-13.68-.08-20.41-.24-4.89.94-8.8 5.08-11.59h246c4.12 2.8 5.34 6.68 5.09 11.58-.37 6.61-.09 13.25-.09 20.42h101.21c8.21 0 10.88 2.6 10.78 10.65-.74 62.8-18.18 119.85-59.18 168.4-30.36 36-68 61.41-113.1 75.46a14.78 14.78 0 0 0-6.06 3.92 110.11 110.11 0 0 1-26.75 20.69c-8.14 4.59-10.87 13-12.66 21.54-.32 1.54 1.07 4 2.41 5.21 4.39 4 8.8 8.16 13.79 11.33 9.92 6.31 12.47 15 9.76 26.32-3.52 14.67-2.31 29.26 9 40.88a173.26 173.26 0 0 0 18.51 16 11 11 0 0 1 4.75 9.74c-.15 7.13 0 14.27 0 21.87 2.17 0 3.81-.1 5.44 0 5.78.4 10 4.51 10.11 10.34.18 9.16 0 18.32.05 27.49 0 5-3.57 7.51-7 10.14zM128.86 63v5.9A519.08 519.08 0 0 0 140.08 169c6.41 29.73 15.55 58.52 31.11 84.91 8.87 15.05 19.42 28.7 34 38.76 21.71 15 47 15.42 68.7.38A108.13 108.13 0 0 0 293.75 275c17.36-20.11 28-44 36.15-69 13.71-42.13 19.35-85.6 21-129.69.17-4.41 0-8.83 0-13.35zm-.74-16.53h223.55V16.36H128.12zM342.48 220.1c45.25-36.12 77.83-79.59 83.09-139.88h-58.13c-2.24 47.78-9.25 94.57-24.96 139.88zM54.59 80.29c1.8 28.89 11.27 54.82 26.3 78.9 14.91 23.9 34.27 43.68 55.29 60.33-5.32-22.5-11.78-45.39-15.93-68.69s-6-47-8.83-70.54zM368.17 64h64.8c7.52 0 10.15 2.71 10.11 10.28a147.56 147.56 0 0 1-8.71 49.44c-18.92 52.53-54.44 91.7-100 122.45-6.79 4.6-8.68 11.39-13.55 18.22C412.26 226.88 463.41 139 462.62 48.26h-94.45zm-256.42 0V48.27H17.26c-.68 40.5 12 101.84 52 150 24.18 29.09 53.63 51.06 89 65.23-3-5.49-5.4-12-10.11-15.13-33.79-22.26-61.79-50.12-83.3-84.33-17.25-27.42-27.57-57.17-27.94-89.91C36.81 66.65 39.49 64 47.1 64h30zm78 367.71h100.51c-17.75-11.36-16.61-30-18.4-47.46h-63.73c-1.89 17.48-.61 36.02-18.4 47.47zm-29.52 63.94h159.35v-15.4H160.21zm16-32h127.71v-15.34H176.17zm98.28-95.88c-2-2.24-2.93-3.69-4.23-4.74-5.82-4.67-12.17-8.78-17.49-14s-7.88-11.95-6.17-19.63c.61-2.72 1.73-5.33 2.67-8.14h-18.94c6.8 12.66 2.87 23-6.53 31.68-4.23 3.92-9.44 6.75-14.11 10.22-1.28.95-2.2 2.41-4.12 4.57z" data-name="&#x420;&#x435;&#x436;&#x438;&#x43C; &#x438;&#x437;&#x43E;&#x43B;&#x44F;&#x446;&#x438;&#x438;"/>
    </g>
</symbol><symbol id="ico-fb" viewBox="0 0 32.18 69.17">
    <title>
        fb
    </title>
    <g data-name="Layer 2">
        <path d="M0 22.68l4.87-.26h2.12c0-2.62-.09-5.15 0-7.66a23.18 23.18 0 0 1 .77-5.46C9.42 3.72 13.41.65 19.08.18 23.33-.18 27.64.11 32 .11v11.76h-7.42c-2.14 0-3.24 1.07-3.26 3.18v7.32h10.86c-.14 1.81-.25 3.42-.4 5-.19 2-.46 4-.6 6-.07 1-.55 1.21-1.43 1.2h-8.43v34.6H7.05V34.45H0z" data-name="&#x421;&#x43B;&#x43E;&#x439; 1"/>
    </g>
</symbol><symbol id="ico-in" viewBox="0 0 70.23 70.29">
    <title>
        in
    </title>
    <g data-name="Layer 2">
        <g data-name="&#x421;&#x43B;&#x43E;&#x439; 1">
            <path d="M70.15 35.21c0 5.61.19 11.23 0 16.84a19 19 0 0 1-19.32 18.24H19.52a19.31 19.31 0 0 1-19.43-19q-.18-16.2 0-32.42A18.62 18.62 0 0 1 18.1.22q17.07-.44 34.15 0c9.59.25 17.5 8.39 17.87 18 .21 5.64.03 11.32.03 16.99zM35.36 6.51H19.79c-7.65 0-13.14 5.06-13.28 12.65q-.28 16.11 0 32.25a12.2 12.2 0 0 0 12.42 12.35q16.2.32 32.41 0A12.67 12.67 0 0 0 64 51.06q.3-15.89 0-31.78c-.15-7.59-5.81-12.75-13.41-12.76-5.06-.02-10.14-.01-15.23-.01z"/>
            <path d="M35.24 17A18.13 18.13 0 1 1 17 35a18.2 18.2 0 0 1 18.24-18zm-.05 29.7a11.67 11.67 0 1 0-11.77-11.65A11.75 11.75 0 0 0 35.19 46.7z"/>
            <path d="M50 16.3a4.06 4.06 0 0 1 4.11-4 4.08 4.08 0 1 1-.26 8.16A4 4 0 0 1 50 16.3z"/>
        </g>
    </g>
</symbol><symbol id="ico-info-0" viewBox="0 0 123.49 123.51">
    <title>
        info-0
    </title>
    <g data-name="Layer 2">
        <g data-name="&#x421;&#x43B;&#x43E;&#x439; 1">
            <path d="M0 61.47a61.75 61.75 0 1 1 61.84 62A61.91 61.91 0 0 1 0 61.47zm119.14.39A57.45 57.45 0 1 0 62 119.12a57.42 57.42 0 0 0 57.14-57.26z"/>
            <path d="M66.08 88.91l5.67.66v5.85h-20.1v-5.75l6.05-.82V35.08l-6.16-.54v-6.1h20.28v6l-5.74.56z"/>
        </g>
    </g>
</symbol><symbol id="ico-info-1" viewBox="0 0 216 254.79">
    <title>
        info-1
    </title>
    <g data-name="Layer 2">
        <g data-name="&#x421;&#x43B;&#x43E;&#x439; 1">
            <path d="M0 58.31c2.44-.69 4.89-2 7.31-2C26 56.79 44.6 56 62.65 50.45a96.7 96.7 0 0 0 15.24-6.05c15.57-7.88 24.76-20.2 25.76-38.07.34-6.08 2-7.12 8-5.85q37.8 8 75.62 15.93c7.46 1.57 8.11 3.05 5.23 10.18-8.05 19.89-10.7 40.81-10.81 62-.05 9.73.45 19.73 2.63 29.16 3.22 13.93 11.07 24.16 27.18 24.69 1.51.05 3 1.19 4.47 1.83v7a37.33 37.33 0 0 0-1 4.24c-3.92 30.86-7.91 61.71-11.58 92.6-.62 5.21-2.84 6.66-7.72 6.62-19.48-.18-39-.21-58.43 0-5.12.06-7.34-1.68-8.38-6.75-3.46-16.86-7.39-33.61-11.14-50.4a14.66 14.66 0 0 0-1.72 5.32c-2.61 15.41-5.31 30.8-7.72 46.24-.65 4.18-2.63 5.6-6.64 5.59-31.79-.07-63.59 0-95.39-.14-2.09 0-4.17-1.49-6.25-2.28zm173.72 54c-2.33-30.27.19-59.24 10-87.7l-71.57-15C109.47 33.81 95 48.27 73.5 55.59 60.72 59.94 47.07 62 33.66 64.15c-8.08 1.31-16.45.91-24.5 1.28v46.62l1.29-1.05c2.22 1.68 6 3.08 6.36 5.08 1 5.67-4.53 4.17-7.59 5.26V246h90.62c.39-1.9.81-3.66 1.1-5.44q5.37-32 10.73-64c.56-3.29 0-7.9 4.83-8 5.23-.14 4.67 4.86 5.41 8.15q7.34 32.37 14.33 64.8c.75 3.5 2 5 5.87 4.81 8.48-.33 17-.1 25.48-.1h27.3c4-31.9 7.91-63.37 11.91-95.32-13.45-1.79-22.21-9.43-27.3-21.13-2.33-5.37-3.83-10.53-11.46-9.25-1 .18-3.63-2.78-3.56-4.19s2.4-3.09 4.09-3.9c1.33-.68 3.21-.17 5.15-.17z"/>
            <path d="M90.69 112.26c2.82 0 5.78-.52 8.41.18 1.75.48 3 2.69 4.54 4.13-1.39 1.39-2.69 3.87-4.18 4a101.77 101.77 0 0 1-17.37 0c-1.51-.14-2.78-2.85-4.17-4.38 1.44-1.3 2.7-3.35 4.36-3.74 2.72-.64 5.59-.18 8.41-.19z"/>
            <path d="M133.92 112.27c2.82 0 5.78-.53 8.41.18 1.76.48 3 2.71 4.54 4.16-1.41 1.38-2.73 3.83-4.24 4a107.41 107.41 0 0 1-17.39 0c-1.5-.12-2.81-2.56-4.2-3.94 1.47-1.45 2.73-3.7 4.47-4.18 2.62-.75 5.59-.22 8.41-.22z"/>
            <path d="M47.86 112.26c2.65 0 5.45-.53 7.9.17a7 7 0 0 1 4.24 4.13c.26 1-2.27 3.87-3.69 4a112.91 112.91 0 0 1-17.83 0c-1.37-.11-3.56-2.8-3.49-4.2s2.33-3.5 3.95-3.86c2.86-.69 5.94-.23 8.92-.24z"/>
        </g>
    </g>
</symbol><symbol id="ico-info-2" viewBox="0 0 272.22 270.81">
    <title>
        info-2
    </title>
    <g data-name="Layer 2">
        <g data-name="&#x421;&#x43B;&#x43E;&#x439; 1">
            <path d="M256.44 27.3c-1.65 1.58-3 2.79-4.23 4.06Q207.85 75.7 163.47 120c-1.81 1.8-4.32 4-6.51 4-2.72 0-6.63-1.38-7.85-3.45s0-5.76.71-8.61c.3-1.25 2-2.17 3-3.24Q196.91 64.44 241 20.15c1.12-1.13 2.15-2.35 3.23-3.54-7.6 0-14.85-.1-22.09 0-9.5.15-19 .49-28.48.73-6 .16-9.66-2.68-9.73-7.53-.07-4.68 3.26-7.75 9-7.9q38-1 75.93-1.94c1 0 1.92.09 3.2.15.09 1.9.24 3.52.23 5.14q-.12 37-.3 74a18.91 18.91 0 0 1-.44 4.94c-1.07 3.8-3.67 5.92-7.71 5.75-3.81-.16-6.19-2.37-7-6a28.82 28.82 0 0 1-.33-6c-.08-16.6-.07-33.24-.07-50.65z"/>
            <path d="M15.68 243.65c1.71-1.63 2.93-2.75 4.09-3.91q45-44.78 90-89.62c3.34-3.33 6.62-5 11-2.26 4.66 2.93 5 8.3.65 12.7-9.25 9.37-18.59 18.65-27.9 27.95l-62.27 62.22c-1.12 1.12-2.14 2.33-3.05 3.32 11.26 0 22.34.07 33.42 0 6-.06 12-.5 18-.56 5.28-.05 8.66 3 8.7 7.58 0 4.34-3 7.67-8 7.8-26.46.74-52.94 1.32-80 2-.16-1.87-.32-3.66-.32-5.4q.12-37 .28-74A21.29 21.29 0 0 1 .39 188c.77-4.26 3.1-7 7.67-7.1 4-.1 7.21 2.76 7.59 7.11.3 3.47 0 7 0 10.49z"/>
        </g>
    </g>
</symbol><symbol id="ico-info-3" viewBox="0 0 256 213.23">
    <title>
        info-3
    </title>
    <g data-name="Layer 2">
        <g data-name="&#x421;&#x43B;&#x43E;&#x439; 1">
            <path d="M0 42.87C23.24 29.58 46.42 16.2 69.78 3.11A26 26 0 0 1 80.52.24C87.13-.21 93.8.11 101.09.11c.69 9.41 4.18 17.61 12.41 22.14a34.77 34.77 0 0 0 16 4.34c13.13 0 20.92-8.34 25.86-26.4 8.27 0 16.7-.09 25.13.08 1.37 0 2.77 1 4.05 1.77q35.74 20.4 71.46 40.83v1q-9.52 25.71-19 51.42c-.69 1.85-1.43 3.69-2.37 6.1L202.77 91v122.23H53.41V90.9L21.5 101.41 0 43.87zm192.06 159.91V76.15l36.15 11.91 14.65-40.4C224 36.87 205.33 26.59 187.12 15.59A31.14 31.14 0 0 0 166.81 11a5.62 5.62 0 0 0-3.87 2.65c-6.8 15.18-18.39 23.79-35 23.77S99.75 28.81 93 13.56A5 5 0 0 0 89.63 11c-7-.53-13.92-.55-19.91 4.22-2.32 1.85-5.15 3-7.75 4.53L13.11 47.67 27.8 88.06l36.48-12v126.72z"/>
            <path d="M170.54 138.54h-85l24.15-40.29 9.91 16.1c6.19-10.8 12.12-21.13 18.61-32.43zm-32.4-35.14c-4.83 8.46-9.23 16.18-13.87 24.29H152m-47.29-.42l.86 1.37 7.2-2.48c-.84-2.23-1.69-4.46-2.91-7.68z"/>
        </g>
    </g>
</symbol><symbol id="ico-info-4" viewBox="0 0 212.23 191.62">
    <title>
        info-4
    </title>
    <g data-name="Layer 2">
        <path d="M42.33 77.45l-13 6.38c-3.64 1.77-6.34 1-8.2-2.78Q11.12 60.92 1 40.85c-2-4-1.06-6.8 2.89-9.1C15.55 24.94 27 17.85 38.65 11a80.83 80.83 0 0 1 39-11c4-.14 6.39 1.12 7.65 5.36 3 10.17 11.07 16 21 16 9.69-.05 17.58-5.86 20.6-15.85 1.26-4.14 3.53-5.62 7.59-5.48A81.45 81.45 0 0 1 174 11.17C185.44 18 196.75 25 208.27 31.68c4.22 2.46 4.92 5.34 2.81 9.51-6.6 13.07-13.08 26.21-19.68 39.28-2.37 4.68-4.47 5.32-9.27 3-3.84-1.84-7.63-3.79-12.21-6.07v100.81c0 9.64-3.69 13.37-13.24 13.38h-102c-8.18 0-12.31-4.13-12.32-12.29q-.06-48 0-96zM201.1 38.58c-14.69-8.14-28.71-16.43-43.24-23.7-5.33-2.67-11.85-3-17.84-4.29-2.63-.58-4.09.45-5.4 3-5.91 11.49-15.51 17.89-28.43 17.89S83.62 25.2 77.7 13.68c-1.28-2.49-2.62-3.37-5.36-3.14a67.13 67.13 0 0 0-28.73 9.25C34 25.41 24.44 31.21 14.89 37c-1.1.66-2.06 1.54-3.3 2.47L28.41 73c4.19-2.1 8.13-3.85 11.8-6.06 1.1-.67 1.88-2.57 2-4 .42-4-.84-9.42 5.48-9.13s4.68 5.88 4.69 9.72q.17 56 0 112c0 4.32.84 6.08 5.68 6.05q48-.32 96 0c4.7 0 5.8-1.54 5.78-6-.16-35.83-.11-71.66-.1-107.49 0-3.49-.27-7.08.46-10.44.34-1.57 2.83-3.81 4.23-3.73 1.81.09 4 1.88 5.11 3.55.85 1.32 0 3.63.44 5.36.39 1.56 1.15 3.52 2.38 4.28 3.52 2.16 7.37 3.8 11.48 5.84 5.67-11.23 11.16-22.21 17.26-34.37z" data-name="&#x421;&#x43B;&#x43E;&#x439; 1"/>
    </g>
</symbol><symbol id="ico-info-5" viewBox="0 0 191.35 186.1">
    <title>
        info-5
    </title>
    <g data-name="Layer 2">
        <path d="M33.68 63.82c9 0 18-.16 27 .09 3.36.09 5-1 6.25-4.12q11-27 22.55-53.86c1-2.38 3.45-5.16 5.75-5.76 3.91-1 5 2.87 6.2 5.8 7.42 17.81 14.92 35.59 22.22 53.45 1.31 3.19 2.89 4.51 6.53 4.47q26.73-.3 53.48.08c2.4 0 5.68 1.36 7 3.2 2.15 3.1-.81 5.41-3.09 7.43-13.21 11.73-26.3 23.58-39.68 35.11-3.19 2.76-3.54 5.12-2.3 9 6.09 18.83 11.89 37.75 17.75 56.66 1 3.27 2.89 6.79-.74 9.61-3.4 2.63-6.29.23-9.13-1.42-18-10.47-36-20.86-53.88-31.52-3.19-1.9-5.45-1.76-8.53.07q-27.3 16.14-54.87 31.81c-2.22 1.26-5.44.77-8.2 1.09-.3-2.77-1.5-5.81-.77-8.27 5.88-19.77 12-39.45 18.31-59.1 1-3.14.63-5-1.94-7.24Q23.17 92.64 3.24 74.43c-1.79-1.64-3.45-4.76-3.22-7 .39-3.69 4.07-3.66 7.17-3.65h26.49zM95.1 19c-1.13 2.43-1.94 4-2.61 5.63-6.1 14.75-12.29 29.47-18.18 44.31-1.54 3.87-3.77 5.35-7.86 5.3-13.83-.16-27.66-.06-41.49-.06h-4.51c10.94 11.17 22 21.26 33.36 31 3.88 3.32 4.77 6.54 3.21 11.34-5 15.34-9.66 30.78-14.43 46.19-.56 1.81-1 3.67-1.68 6.44 2.42-1.35 3.87-2.12 5.3-2.95 14.68-8.53 29.41-17 44-25.68 3.73-2.23 6.73-2.4 10.55-.12 15 9 30.16 17.68 45.27 26.45 1.18.69 2.46 1.19 4.33 2.07-.65-2.2-1-3.62-1.48-5-4.92-16.06-9.78-32.15-14.82-48.17-1.3-4.15-.65-7.17 2.76-10.14 10.17-8.87 20.07-18 30.14-27a25.22 25.22 0 0 1 4.16-2.47l-1.21-1.89h-5.3c-13.67 0-27.33-.1-41 .06-4.06.05-6.47-1.3-7.89-5.23-2.21-6.1-4.85-12-7.33-18C104.07 40.57 99.74 30.16 95.1 19z" data-name="&#x421;&#x43B;&#x43E;&#x439; 1"/>
    </g>
</symbol><symbol id="ico-tg" viewBox="0 0 69.01 69.01">
    <title>
        tg
    </title>
    <g data-name="Layer 2">
        <g data-name="&#x421;&#x43B;&#x43E;&#x439; 1">
            <g data-name="6asFUD.tif">
                <path d="M69 34.48v22C69 64 64 69 56.5 69h-44C5 69 0 64 0 56.46V12.61C0 5 5 0 12.6 0h44C63.92 0 69 5 69 12.3v22.18zm-9.88-19.43c0-1.84-1.18-2.64-2.81-2-1.85.71-3.67 1.52-5.5 2.29L12.13 31.43c-1.08.46-2.38.77-2.26 2.36s1.49 1.69 2.6 2c2.36.64 4.72 1.26 7.09 1.84a2.89 2.89 0 0 1 2.32 2.17c1.36 4.39 2.8 8.76 4.26 13.12.68 2 2.16 2.29 3.57.72s3-3.44 4.47-5.16c1.33-1.52 2-1.59 3.58-.33 3 2.35 6 4.74 9 7.09 2 1.6 3.3 1.16 3.85-1.33Q53.8 39.36 57 24.81c.74-3.33 1.45-6.66 2.12-9.76z"/>
                <path d="M26.83 49.08c-1-3.68-2.07-7.36-3-11a1.46 1.46 0 0 1 .63-1.22q11.71-7.1 23.49-14.11a2.8 2.8 0 0 1 .26.21c-.4.38-.78.76-1.18 1.11-5.86 5.03-11.67 10.12-17.51 15.16a4.17 4.17 0 0 0-1.59 3.21c-.1 2.2-.4 4.4-.61 6.6z"/>
            </g>
        </g>
    </g>
</symbol><symbol id="ico-viber" viewBox="0 0 79.69 79.54">
    <title>
        viber
    </title>
    <g data-name="Layer 2">
        <path d="M39.82 0A74.14 74.14 0 0 1 57 1.38c5.63 1.26 10.75 3.49 14.78 7.78a26.35 26.35 0 0 1 6.44 12.52 55.8 55.8 0 0 1-.06 25.48 25.43 25.43 0 0 1-8.27 14.09 29.31 29.31 0 0 1-12.94 6 74.78 74.78 0 0 1-18.15 1.39 5.76 5.76 0 0 0-5.28 2.43c-1.72 2.24-3.71 4.27-5.6 6.38a5.53 5.53 0 0 1-9.84-3.73v-7.13c0-.48-.09-.76-.59-1-9.26-3.54-14.37-10.5-16.41-20A58.07 58.07 0 0 1 .4 27.36 36.41 36.41 0 0 1 3.64 15.3c3.24-6.73 8.67-10.86 15.69-13A56 56 0 0 1 33.88 0h5.94zM25.43 14.28a18.42 18.42 0 0 0-2.69.25 10.63 10.63 0 0 0-7.91 13.24 42.68 42.68 0 0 0 14.41 21.61 44.37 44.37 0 0 0 14.5 7.95 10.66 10.66 0 0 0 11.38-2.83c2.69-2.7 3.26-6 2.73-9.65a2.21 2.21 0 0 0-1.1-1.37c-2.36-1.27-4.76-2.49-7.2-3.6a4.74 4.74 0 0 0-2.55-.29 9.64 9.64 0 0 0-5.43 2.92.91.91 0 0 1-1.17.27 20 20 0 0 1-10.91-11 .94.94 0 0 1 .17-1 40.78 40.78 0 0 0 2.74-4.44 4.43 4.43 0 0 0-.24-4.24 51.13 51.13 0 0 1-2.61-5.24c-.76-1.95-1.91-3.02-4.12-2.58zm36.16 17.27a21.31 21.31 0 0 0-4.88-12.78 21.53 21.53 0 0 0-16.53-8.06 1.92 1.92 0 0 0-2.06 1.17c-.55 1.36.43 2.52 2.17 2.56a17.89 17.89 0 0 1 16.85 13 38.74 38.74 0 0 1 .78 5.18 1.84 1.84 0 0 0 3.67-.16c.01-.24 0-.46 0-.91zm-7.25.26A14.55 14.55 0 0 0 40 18a1.84 1.84 0 1 0-.13 3.67l.85.07A10.49 10.49 0 0 1 48 25.43a10.79 10.79 0 0 1 2.66 7.07 1.83 1.83 0 1 0 3.65 0c.04-.25.03-.5.03-.69zm-14.22-6.58a1.85 1.85 0 1 0-.18 3.67 3.57 3.57 0 0 1 3.45 3.5 1.88 1.88 0 0 0 2 1.93 1.9 1.9 0 0 0 1.72-2.13 7.31 7.31 0 0 0-6.99-6.97z" data-name="&#x421;&#x43B;&#x43E;&#x439; 1"/>
    </g>
</symbol><symbol id="ico-vk" viewBox="0 0 77.34 46.91">
    <title>
        vk
    </title>
    <g data-name="Layer 2">
        <path d="M0 2c4 0 7.85-.07 11.65 0 1.53 0 2.5 1 3.19 2.47 2.16 4.53 4.3 8.9 6.66 13.2a18.33 18.33 0 0 0 3.69 4.51c1.68 1.57 3.27 1.15 3.83-1a29.31 29.31 0 0 0 0-15c-.55-2-2.39-2.5-4.33-3A3.9 3.9 0 0 1 27.65.7a37.66 37.66 0 0 1 6-.69 70.71 70.71 0 0 1 8.23.35c2.91.3 3.9 1.51 3.9 4.57 0 3.86-.2 7.73-.23 11.59a19.7 19.7 0 0 0 .35 4.41c.47 2.06 2.26 2.66 3.58 1.05a82.4 82.4 0 0 0 6.77-9.33 68.73 68.73 0 0 0 4.11-8.56 2.64 2.64 0 0 1 2.76-1.86c4.65.06 9.3 0 14.16 0v8.05c0 .41-.41.84-.69 1.22q-4 5.37-7.94 10.71c-.47.64-.93 1.29-1.34 2-1.2 2-1.11 3.32.52 5 2.59 2.67 5.24 5.26 7.88 7.86a4.87 4.87 0 0 1 1.67 4.2c-.17 1.73 0 3.48 0 5.57h-6.12c-2 0-4.24 0-6.36.07a8.26 8.26 0 0 1-5.9-2.28c-1.75-1.6-3.3-3.43-5-5.12a29.74 29.74 0 0 0-3-2.94c-1.47-1.11-3-1-3.75.67a18.85 18.85 0 0 0-1.61 5.85c-.32 2.8-.87 3.68-3.64 3.59-3.48-.11-7.06 0-10.4-.77-6.64-1.57-11.95-5.54-16.27-10.76A114.85 114.85 0 0 1 .47 11.37 8.17 8.17 0 0 1 0 8.3V2z" data-name="&#x421;&#x43B;&#x43E;&#x439; 1"/>
    </g>
</symbol><symbol id="ico-whatsapp" viewBox="0 0 77.9 77.93">
    <title>
        whatsapp
    </title>
    <g data-name="Layer 2">
        <path d="M2.55 76.22C4.11 71.56 5.61 67 7.15 62.5A1.27 1.27 0 0 0 7 61.19 37 37 0 0 1 .14 42.6c-1-13.14 3.39-24.2 13.22-33A36.83 36.83 0 0 1 32.83.48a38.06 38.06 0 0 1 31.48 9 37.29 37.29 0 0 1 12.75 21.63 37.88 37.88 0 0 1-7.75 32.15 37.6 37.6 0 0 1-23.41 14A38.11 38.11 0 0 1 18.28 72a1.8 1.8 0 0 0-1.68-.23C12.16 73.19 7.7 74.6 3.24 76zm49-15.44a12.79 12.79 0 0 0 7.48-2.61c2.72-1.94 3.32-4.76 3.37-7.83a1.35 1.35 0 0 0-.81-1.34c-3.05-1.47-6.09-3-9.17-4.39a2.14 2.14 0 0 0-2.92.85c-.86 1.16-1.69 2.34-2.59 3.48a2.45 2.45 0 0 1-3.34.86 30.32 30.32 0 0 1-14.86-12.72c-1-1.61-1-1.93.25-3.34.7-.8 1.42-1.58 2.11-2.39a2.65 2.65 0 0 0 .42-3.29 14.59 14.59 0 0 1-.63-1.46c-.93-2.27-1.9-4.53-2.79-6.82a2.69 2.69 0 0 0-2.93-2h-1.37A5.33 5.33 0 0 0 20.41 19a12.37 12.37 0 0 0-3 4 14 14 0 0 0-.07 11.08 34.48 34.48 0 0 0 4.91 8.26C27.71 49.69 34.22 55.62 43 58.67c2.8.97 5.58 2.01 8.58 2.11z" data-name="&#x421;&#x43B;&#x43E;&#x439; 1"/>
    </g>
</symbol><symbol id="ico-work-0" viewBox="0 0 167.52 164.87">
    
    <title>
        work-0
    </title>
    <g id="Layer_2" data-name="Layer 2">
        <g id="&#x421;&#x43B;&#x43E;&#x439;_1" data-name="&#x421;&#x43B;&#x43E;&#x439; 1">
            <path class="cls-1" d="M11.49 164.37c-8.72.16-12.91-6.27-10.15-14 5.18-14.56 10.58-29 15.89-43.55 2.4-6.56 5.1-13 7-19.72a16.47 16.47 0 0 0 0-9.46C17 57.09 9.3 36.72 1.94 16.23A18.29 18.29 0 0 1 .8 7.52c1-6.12 8-8.83 14.31-5.73 11.66 5.68 23.22 11.55 34.82 17.36Q105 46.71 160.07 74.31a16.54 16.54 0 0 1 4.93 3.26c3.75 4.1 2.13 9.53-3.75 12.51-13.34 6.76-26.75 13.4-40.13 20.09q-52 26-103.94 51.92a58.59 58.59 0 0 1-5.69 2.28zm143.89-81.91L10.39 10a13.5 13.5 0 0 0 .21 2.7c7.68 21.08 15.33 42.18 23.25 63.17.52 1.37 3.16 2.7 4.84 2.72 14 .22 28 .14 42 .12 2.92 0 6.33-.1 6.36 3.75s-3.33 3.85-6.28 3.84c-13.83 0-27.66.09-41.48-.1-3.33 0-4.95.87-6.13 4.16-7.13 20.05-14.53 40-21.82 60-.43 1.18-.66 2.43-1.29 4.81z" id="UhEFrN.tif"/>
        </g>
    </g>
</symbol><symbol id="ico-work-1" viewBox="0 0 218.25 454.03">
    <title>
        work-1
    </title>
    <g data-name="Layer 2">
        <path d="M5.41 205.36h12c-1.68-9.88-3.23-19.31-4.89-28.71-4.15-23.44-9-46.77-12.16-70.34-1.24-8.94 1.33-18.43 2.58-27.62.94-6.91 2.52-13.69 3.79-20.62 1.36-7.3 5.57-11.89 12-13 6.65-1.15 11.89 1.45 15.77 8 4.77 8 9 16.41 14.34 24 8 11.28 9.52 24.29 11.77 37.22q7.6 43.53 15.29 87.05c.21 1.14.57 2.26.93 3.69h6.13c.51-9.74 1-19.35 1.49-29q1.54-33 2.93-65.91a6.36 6.36 0 0 0-1.42-4.43c-13.84-13-16.06-29.52-14-47C75.6 29 96.08 7 124.89 1.88 132.83.46 141.05.62 149.87 0c-.62 2-.73 3.2-1.27 4.1-11.3 18.7-11.54 38.7-7.74 59.47 1.52 8.26 1.74 16.84 1.71 25.27 0 6.4-3.63 11.54-8.22 16a8.73 8.73 0 0 0-2.57 5.77c1.2 30.64 2.63 61.26 4 91.89 0 .65.19 1.3.3 2 3.78 1.92 4.92 0 5.51-3.35 6-34.59 12.16-69.16 18.17-103.76 2.21-12.75 8-21 18.84-21.17a77.61 77.61 0 0 1 28.95 5.39c8.51 3.35 11.89 12 10.32 21.34-5.42 32-11.15 63.94-16.75 95.91-.33 1.92-.53 3.87-.85 6.32h11.49c-.8 6.89-1.49 13.26-2.29 19.61q-8.28 65.91-16.58 131.82-5.73 45.85-11.29 91.71c-.47 4-1.45 5.66-6 5.64q-67-.28-134 0c-4.47 0-5.51-1.62-6-5.61-4.34-36-8.88-72-13.36-108.06q-6.78-54.71-13.6-109.48c-1.03-8.24-2.09-16.48-3.23-25.45zm162.71 234c9.15-73.22 18.25-146 27.39-219.08H21.8c4.08 32.86 8.07 65.24 12.12 97.61 4.85 38.82 9.85 77.63 14.53 116.47.5 4.18 1.9 5.1 5.81 5.08 36-.14 72-.08 108-.08zM14.64 106.09c1 6 2 11.38 2.93 16.75q6.95 39.33 14 78.65c.25 1.36 1.44 3.61 2.25 3.63 9.25.26 18.51.17 28.24.17-6.21-35.22-12.3-69.69-18.43-104.42zm113-89.93c-1.78.2-2.61.21-3.39.4-19.66 5-31.3 18-36.59 37.05-3.15 11.37-3 22.74 2.07 33.64 2.53 5.42 6.1 9.44 13.07 8.42 3.1-.46 6.31-.09 9.48-.08 14.57.06 18-3.82 16.24-18.57-.1-.83-.28-1.64-.41-2.46-2.99-19.22-6.87-38.42-.47-58.4zm57.77 188.94c4-22.87 8-45.24 12-68l-29-5.1c-4.33 24.58-8.58 48.68-12.88 73.06zm-83.66-94.78c-1.45 31.88-2.88 63.2-4.31 94.6h24.12c-1.45-31.77-2.87-63.11-4.31-94.6zm69.18 7.51l29 5.06c1.3-8 2.74-15.49 3.65-23 .43-3.52-1.76-6.15-5.22-6.93-5.18-1.17-10.43-2.12-15.69-2.78-4.28-.54-7.13 1.85-8 5.91-1.37 6.91-2.41 14-3.74 21.74zM38 87.21C32.31 77.71 27.16 69 22 60.38l-1.14.48-5.55 30.42z" data-name="&#x421;&#x43B;&#x43E;&#x439; 1"/>
    </g>
</symbol><symbol id="ico-work-2" viewBox="0 0 490.82 437.18">
    <title>
        work-2
    </title>
    <g data-name="Layer 2">
        <g data-name="&#x420;&#x435;&#x436;&#x438;&#x43C; &#x438;&#x437;&#x43E;&#x43B;&#x44F;&#x446;&#x438;&#x438;">
            <path d="M444.28 437.18h-398a14.16 14.16 0 0 0-2.29-.87c-26.37-5.19-43.9-26-43.93-53Q-.09 229.63.14 75.9a50.25 50.25 0 0 1 2.79-16.59c6.3-17.51 21.88-27.38 42.23-27.39q103.74 0 207.47-.08a28.05 28.05 0 0 0 9.21-1.6c27-9.62 53.82-19.42 80.74-29.1 7.83-2.82 12.81-.42 15.7 7.38 2.43 6.55 4.92 13.08 7.09 19.72.95 2.89 2.48 3.77 5.44 3.73 12-.13 24-.26 36 0 18.93.46 35.23 13.16 39.45 31.64C448 71.47 447.54 79.83 448 88c.15 2.56 0 5.14 0 7.65 25.06 1.21 43.46 20.59 42.78 48.27-1 41.8-.27 83.65-.27 125.48 0 38 .09 76 0 114-.09 24.21-14.74 44.27-37.13 51.35-3.01.87-6.07 1.6-9.1 2.43zm-423-325.95v270.94c0 19.95 13.56 33.7 33.53 33.71q190.46.08 380.9 0c20 0 33.52-13.75 33.55-33.7q.06-34 0-68c0-1.6-.14-3.19-.23-5-14.62 0-28.76.12-42.91 0-21.29-.21-39.65-16.56-41.83-37-2.39-22.55 11.14-42.19 32.71-47a62.25 62.25 0 0 1 12.9-1.18c13-.14 25.9-.05 39.38-.05V142c0-16.68-8.16-24.86-24.77-24.86H52.1c-10.38.09-20.65.11-30.82-5.91zm320.14-87.3L145.7 94.84l.32.66h221.42zM197.08 53.76a14.52 14.52 0 0 0-2.27-.56H42a19.63 19.63 0 0 0-15.66 7.58c-5.51 6.79-6.73 14.42-3.08 22.43 3.84 8.45 10.81 12.49 19.89 12.64 11.14.2 22.3.15 33.45 0a25.87 25.87 0 0 0 8.23-1.46q39.44-14.1 78.78-28.39c10.86-3.95 21.7-7.94 33.47-12.24zm272 191.42H428.2c-13.27 0-22.86 8.86-22.95 21.11s9.34 21.45 22.53 21.59c12.64.13 25.29 0 37.93 0a26 26 0 0 0 3.37-.47zM426.26 95.9c0-8.81.53-17-.14-25.05-.74-9-9.15-17-18.48-17.45-10.77-.53-21.58-.12-33.05-.12 5.07 14 10 27.52 15 41a3.49 3.49 0 0 0 2.74 1.53c11.12.13 22.24.09 33.93.09z"/>
            <path d="M447.8 256.2v20.64h-21V256.2z"/>
        </g>
    </g>
</symbol><symbol id="ico-work-3" viewBox="0 0 135.2 194.59">
    <title>
        work-3
    </title>
    <g data-name="Layer 2">
        <g data-name="&#x421;&#x43B;&#x43E;&#x439; 1">
            <path d="M67.6 194.58h-57C2.28 194.56 0 192.26 0 183.85c0-33.14 0-66.28.09-99.43a10.89 10.89 0 0 1 2.06-6.28c16-20.57 25.86-43.67 29-69.59.69-5.7 3.55-8.28 9.19-8.5C42.18 0 44 0 45.84.05 51.8.26 54.36 3 55 9c.86 8.25 1.75 16.52 3.16 24.69a27.88 27.88 0 0 0 3.94 9.61c3.21 5.24 7.94 5.35 10.94.07a43 43 0 0 0 4.84-13 198.08 198.08 0 0 0 2.33-20.8C80.76 2.69 83.29.14 90.26 0c11-.17 12.43 1.09 14 12a139.47 139.47 0 0 0 28.28 66.26 12.57 12.57 0 0 1 2.49 7.14c.17 33 .12 66 .11 98.93 0 7.71-2.44 10.2-10.13 10.22-19.1.06-38.25.03-57.41.03zm58.2-9.6c.12-1.22.24-1.86.24-2.51 0-31.64.06-63.28-.08-94.93a10.52 10.52 0 0 0-2.29-5.73A150.49 150.49 0 0 1 95.1 13.45c-.22-1.48-1.68-3.71-2.88-3.94-3.44-.67-2.61 2.41-3 4.38-1.63 9.29-2.7 18.75-5.22 27.81-2.13 7.82-6.86 14.3-16.17 14.73-7.28.36-13.76-4.71-16.66-14.75-2.62-9-3.58-18.52-5.23-27.82-.36-2 .48-5-3-4.36-1.23.24-2.73 2.4-3 3.87a150.9 150.9 0 0 1-28.5 67.83A12.13 12.13 0 0 0 9.22 88c-.15 31-.1 61.95-.09 92.92 0 1.29.19 2.58.31 4.09z"/>
            <path d="M72.43 138.94c4.55.75 8.59 1.88 12.64 2a8.8 8.8 0 0 0 9.19-8.07c.53-5.32-1.89-9-7.48-10-4.33-.75-8.83-.5-14-.73 1.13-8.58 2.3-17.4 3.54-26.8 7.95 0 15.74-.2 23.5.2 1.22.06 3.2 2.8 3.19 4.3s-2 3.9-3.37 4c-4.94.49-10 .19-15.6.19l-1.43 9.46 4.92.41c9.35.83 15.87 6.71 16.63 15 .87 9.64-4.37 17.81-13.68 19.82a37 37 0 0 1-13.75 0c-7.47-1.28-7.97-3.04-4.3-9.78z"/>
            <path d="M54.91 95.91v48.92c0 3.7-2.46 4.11-5.45 4.09-3.27 0-4.35-1.67-4.34-4.69v-38c-1.54.63-2.63 1.37-3.79 1.49a34.24 34.24 0 0 1-5.15-.17c.17-2.16-.46-5.54.65-6.27 5.17-3.41 10.29-7.67 18.08-5.37z"/>
        </g>
    </g>
</symbol><symbol id="ico-work-4" viewBox="0 0 200.26 200.26">
    <title>
        work-4
    </title>
    <g data-name="Layer 2">
        <g data-name="&#x421;&#x43B;&#x43E;&#x439; 1">
            <path d="M99.91 0c55.45-.36 100 44.07 100.35 100.16.38 54.65-44.2 99.77-98.91 100.1C45.33 200.6.27 156.52 0 101.1-.28 44.84 43.67.37 99.91 0zm-91 100a91.13 91.13 0 0 0 91 91.32c50.41.08 91.38-40.63 91.45-90.85C191.4 50 150.77 9 100.61 8.93A91.06 91.06 0 0 0 8.93 100z"/>
            <path d="M87.4 122.26l40.08-40.34q6.17-6.19 12.38-12.35c2.28-2.27 4.82-3.3 7.38-.65s1.58 5.11-.72 7.41q-27.37 27.4-54.72 54.81c-2.63 2.63-5.38 2.46-7.89 0Q68.67 116 53.57 100.69c-2.16-2.19-3.49-5.43-.49-7.26 1.68-1 5.72-.37 7.31 1.06 7 6.36 13.61 13.23 20.26 20 2.21 2.25 4.16 4.77 6.75 7.77z"/>
        </g>
    </g>
</symbol></svg>